<svg xmlns="http://www.w3.org/2000/svg" viewBox="0 0 852.51 368.36"><defs><style>.cls-1{fill:#231f20;}</style></defs><title>Asset 1</title><g id="Layer_2" data-name="Layer 2"><g id="Layer_2-2" data-name="Layer 2"><path d="M339.07,180.71l-1.77-.94c3.87-7.29,5.7-13.48,5.61-18.93a21.08,21.08,0,0,0-2.41-9.48,7.63,7.63,0,0,0-4-3.73c-2.27-.79-4.7,0-7.27.75a21.45,21.45,0,0,1-5.72,1.21,5.69,5.69,0,0,1-5.15-2.25,6,6,0,0,1-.67-4c1.07-9.48,9.94-14,17.77-18a71.65,71.65,0,0,0,7.51-4.2c6.28-4.26,11.93-9.56,17.4-14.68,2.18-2,4.43-4.16,6.7-6.18s5.14-4.38,8.46-4.94c4.94-.83,9.77,2.1,13,4.71a68.4,68.4,0,0,1,5.43,5.17c1.2,1.24,2.45,2.51,3.73,3.68,2.17,2,4.51,3.85,6.78,5.65,1.28,1,2.57,2,3.84,3.1,3.49,2.89,7.21,5.74,11.39,8.72,7.89,5.63,16.14,10.79,23.91,15.6,5.6,3.46,11.95,7.39,19,8.54,8.88,1.46,18.84-1.46,30.44-8.91,16-10.3,29.52-24.16,42.57-37.56A26.89,26.89,0,0,0,540.43,98a2.13,2.13,0,0,0,.37-1.55c-.18-.51-1-.72-1.58-.57a5,5,0,0,0-2.2,1.64c-1.29,1.39-2.49,2.94-3.65,4.44a52.79,52.79,0,0,1-5.1,5.95c-4.33,4.14-9.81,6.57-14.93,8.08a12.59,12.59,0,0,1-3,9.11c-3.18,3.69-7.83,5.51-12,6.8-25.94,8.1-51.35,2.87-68.1-2.94a15.06,15.06,0,0,1-5.64-3c-1.59-1.51-2.77-4.11-1.83-6.52,1.09-2.76,4.23-4,9.33-3.74l22.17,1.21c16.7.91,34,1.85,50.72-1.09,1.81-.32,3.85-.72,6-1.28a6.43,6.43,0,0,0-1-1.85c-1.4-1.86-3.67-2.88-6.06-3.86a169.58,169.58,0,0,0-70-12.18c-4.1.16-8.4.49-12,2.51a11.26,11.26,0,0,0-4.07,4,9.05,9.05,0,0,0-1.1,4.25c0,.38-.07.76-.12,1.16-.3,2.62-1.95,6-4.42,7.1a4.28,4.28,0,0,1-4.44-.61c-3.6-2.59-5.59-9.21-4.09-13.61a6.5,6.5,0,0,1,.27-.66,6.88,6.88,0,0,1,.76-1.23,8.68,8.68,0,0,1-3.25-.72,6,6,0,0,1-2.69-2.42c-1.58.37-3.18.69-4.79.95a17,17,0,0,1-6.3.13,7.3,7.3,0,0,1-5.32-4c-1.33-3.08.33-6.52,2.43-8.42a21.49,21.49,0,0,1,6.72-3.66l.73-.28c1.25-.5,2.51-1,3.76-1.61a87.74,87.74,0,0,0,13.34-7.57c3.12-2.76,6.43-5.33,9.77-7.8,2.27-2.11,4.63-4.56,7.29-7.56,1.1-1.24,2.33-2.42,3.51-3.56a37.38,37.38,0,0,0,5.42-6.06c3-4.57,5.41-10.19,8.2-16.69.88-2,1.77-4.12,2.73-6.27.86-1.94,2.18-5.32,3.46-8.59,1-2.5,1.89-4.86,2.53-6.39C454.4,3.9,458,.66,462,.09c3.05-.43,7.81.48,13.23,7.23,2.65,3.3,5.63,6.57,8.51,9.74C487.32,21,491,25,494.11,29.13c4.69,6.23,10.52,13.24,18.25,18,2.53,1.55,5.33,3.14,8.56,4.86,2,1.07,4,2.11,6.12,3.15C527.42,44,531.85,34,539.35,27.28l1.33,1.5c-7.3,6.51-11.52,16.43-11.67,27.35l.7.35L532,57.56c4.44,2.08,9.47,4.44,11.11,9.8a8.48,8.48,0,0,1,.22.94,49.34,49.34,0,0,1,4.09,3.28c4.57,4.12,7.59,8.87,8.75,13.72.54,2.29.34,5.15-1.85,6.27a5.22,5.22,0,0,1-3.06.36c-.32,0-.63-.08-1-.13-9.61-1.61-16-9.55-19.4-17.74a60.51,60.51,0,0,1-8.41-3,75.27,75.27,0,0,1-13.63-7.7c-7.64-5.36-14.16-11.55-21.9-19.09-6.46-6.3-13.79-13.43-19.5-21.74-1.68-2.46-3.26-5.15-3.38-8.19a3.6,3.6,0,0,1,.74-2.6,2.6,2.6,0,0,1,1.93-.93c1.9-.06,3.62,1.56,4.11,2.06l4,4.07a288.4,288.4,0,0,0,20.9,20c2.79,2.33,5.66,4.54,8.58,6.67a88.07,88.07,0,0,1-11.78-13.24c-3.07-4.07-6.7-8.06-10.22-11.93-2.9-3.19-5.9-6.48-8.58-9.83-3.83-4.76-7.77-7-11.4-6.5-3.36.47-6.35,3.27-8.2,7.68-.64,1.51-1.55,3.86-2.52,6.34-1.28,3.3-2.61,6.7-3.49,8.68-1,2.14-1.85,4.23-2.72,6.25-2.83,6.59-5.27,12.28-8.37,17a38.31,38.31,0,0,1-5.71,6.4c-1,1-2.1,2-3.07,3.09l.84-.61,18.84-13.71c.62-.45,1.24-.95,1.88-1.46a24.91,24.91,0,0,1,4.21-3,40.92,40.92,0,0,1,9.92-5.86c2.33-.85,4.2-.9,5.71-.16,2.62,1.28,3.31,4.41,3.42,6.82.42,9.24-4.2,18.93-12.69,26.59C453.24,72.58,444.48,76.9,436,81.07l-3.21,1.59C422.55,87.73,412,93,400.85,95.86A3.89,3.89,0,0,0,402.31,97a8.88,8.88,0,0,0,5.21.33,20.63,20.63,0,0,1,4.11-1.42,43.7,43.7,0,0,0,5.54-3.59c.86-.61,1.71-1.23,2.59-1.82,12.75-8.57,30.75-11.19,49.39-7.19a78.94,78.94,0,0,1,32.74,15.54l3.86,3.1L501,100.56c-14.08-4-29-4.63-43.37-5.24l-1.17,0A170.25,170.25,0,0,1,504.72,107c2.55,1,5.19,2.24,6.89,4.5a8.58,8.58,0,0,1,1.32,2.52c4.83-1.45,10-3.73,14-7.57a50.46,50.46,0,0,0,4.9-5.72c1.19-1.53,2.41-3.12,3.76-4.58a6.9,6.9,0,0,1,3.15-2.21,3.3,3.3,0,0,1,4,1.85,4,4,0,0,1-.48,3.12,28.51,28.51,0,0,1-5.23,6.57c-13.12,13.48-26.69,27.42-42.92,37.84-12,7.73-22.45,10.74-31.85,9.2-7.4-1.21-13.93-5.25-19.69-8.81-7.8-4.82-16.08-10-24-15.67-4.22-3-8-5.89-11.5-8.81-1.26-1-2.54-2.06-3.82-3.08-2.29-1.82-4.66-3.7-6.88-5.73-1.33-1.21-2.59-2.51-3.81-3.76a64.14,64.14,0,0,0-5.27-5c-2.35-1.92-7-5-11.36-4.29-2.81.48-5.32,2.55-7.47,4.46s-4.49,4.12-6.67,6.15c-5.52,5.18-11.23,10.52-17.64,14.88a75.35,75.35,0,0,1-7.72,4.32c-7.74,4-15.74,8-16.69,16.45a4.15,4.15,0,0,0,.37,2.67c.83,1.31,2.82,1.35,3.4,1.34a20.32,20.32,0,0,0,5.19-1.13c2.77-.85,5.63-1.73,8.51-.73a9.59,9.59,0,0,1,5.11,4.66,23.25,23.25,0,0,1,2.66,10.41C345,166.6,343.1,173.11,339.07,180.71Zm91.67-63.05c-3.38,0-5.43.85-6.08,2.52s.27,3.31,1.34,4.32a13.24,13.24,0,0,0,4.91,2.54c16.47,5.72,41.43,10.86,66.85,2.92,3.87-1.2,8.21-2.88,11.06-6.2a10.62,10.62,0,0,0,2.54-7.25c-2.14.56-4.18,1-6,1.28-17,3-34.36,2-51.18,1.12L432,117.7C431.57,117.68,431.15,117.66,430.74,117.66ZM408.24,99.2a5.42,5.42,0,0,0-2.47,2.4c-.07.14-.13.29-.19.44-1.21,3.55.49,9.28,3.37,11.35a2.36,2.36,0,0,0,2.46.4c1.65-.73,3-3.43,3.25-5.5,0-.38.07-.75.11-1.11a10.91,10.91,0,0,1,1.37-5.09A13,13,0,0,1,421,97.42a19.51,19.51,0,0,1,5.76-2,88.4,88.4,0,0,0-12.87,2l-.58.14-.93.22-.11.06A17.42,17.42,0,0,1,408.24,99.2Zm31.91-6.37c5.91,0,11.79.25,17.56.49,12.86.54,26.12,1.1,38.92,4.06a77.13,77.13,0,0,0-27.9-12.15C450.89,81.4,433,84,420.87,92.13c-.85.58-1.69,1.18-2.53,1.79l-1,.7a100.65,100.65,0,0,1,10.4-1.34C431.89,93,436,92.83,440.15,92.83ZM403.3,78q-3.17,1.77-6.46,3.28c-1.27.58-2.57,1.13-3.85,1.64l-.73.29a20,20,0,0,0-6.12,3.28c-1.59,1.44-2.88,4-1.94,6.15a5.44,5.44,0,0,0,3.91,2.85,14.8,14.8,0,0,0,5.55-.15q2.2-.36,4.38-.87C396.76,89.24,398.48,83.81,403.3,78Zm7.29-4.53-1.2,1.08C401.61,81.72,398.54,88.08,400,94c11.11-2.84,21.66-8.06,31.92-13.14l3.22-1.59c8.34-4.12,17-8.37,23.89-14.62,8-7.25,12.42-16.37,12-25-.07-1.53-.46-4.22-2.3-5.12-1-.48-2.36-.4-4.14.25-3.46,1.25-6.53,3.48-9.49,5.64l-.14.09A23.2,23.2,0,0,0,451,43.28c-.66.53-1.31,1.06-2,1.53L430.24,58.52l-4,2.88c-1.94,1.39-3.9,2.8-5.86,4.24-.55.52-1.11,1-1.66,1.5A91.61,91.61,0,0,1,410.59,73.48Zm122.67,1.11c3.28,7.18,9,13.85,17.33,15.24l.85.12a3.6,3.6,0,0,0,1.92-.16c1.16-.6,1.16-2.54.81-4-1.06-4.46-3.87-8.85-8.14-12.69-.9-.82-1.84-1.59-2.81-2.33a5.62,5.62,0,0,1-.9,2A5.41,5.41,0,0,1,537.94,75,22.57,22.57,0,0,1,533.26,74.59Zm-.93-2.23a22.27,22.27,0,0,0,5.55.61,3.38,3.38,0,0,0,2.81-1.39,3.72,3.72,0,0,0,.68-2.19c-2.68-1.87-5.52-3.54-8.29-5.18l-3.55-2.1c.42,2.22,1,4.41,1.6,6.57C531.46,69.89,531.86,71.13,532.33,72.36ZM466.82,12.8h0a.65.65,0,0,0-.49.23,1.85,1.85,0,0,0-.25,1.23c.1,2.53,1.51,4.92,3,7.12,5.6,8.15,12.85,15.22,19.25,21.45C496,50.3,502.46,56.44,510,61.71a72.87,72.87,0,0,0,13.27,7.5A63.91,63.91,0,0,0,530,71.73c-.29-.84-.55-1.69-.78-2.52a67.77,67.77,0,0,1-1.91-8.43C516.05,54.09,504.7,47,494.43,38.44,487,32.2,480.06,25.15,473.38,18.33c-1.33-1.36-2.65-2.71-4-4.06A4.42,4.42,0,0,0,466.82,12.8Zm62.34,46.76,4.94,2.93c2.13,1.26,4.3,2.54,6.41,3.92-1.81-3.48-5.67-5.29-9.41-7-.69-.33-1.38-.65-2-1C529.08,58.78,529.11,59.17,529.16,59.56ZM516.79,52c3.4,2.15,6.83,4.24,10.26,6.29,0-.32,0-.63,0-1-2.38-1.2-4.72-2.39-7-3.61C518.87,53.16,517.81,52.58,516.79,52Z"/><path d="M353.44,236.52a14.83,14.83,0,0,1-8-2.48,24.37,24.37,0,0,1-8-9.4,42,42,0,0,1,1.16-40.28,86,86,0,0,1,5.65-8c3.94-5.15,7.67-10,8.78-16,.72-3.86.24-7.75-.26-11.87a48.18,48.18,0,0,1-.51-10.68c.27-2.78,1.23-6.56,4.2-8.78a15.81,15.81,0,0,1,4.61-2.09l.5-.16a61.33,61.33,0,0,0,15.22-7.47l1.25-.86c3-2.08,6.1-4.22,9.84-4.56,5.41-.48,10.16,3.09,13.18,6.18l3.08,3.19a118.83,118.83,0,0,0,14,13.07,87.45,87.45,0,0,0,23.18,12.57,85.25,85.25,0,0,0,12.85,3.53,85.59,85.59,0,0,0,10.41,1.09c1.29.08,2.57.16,3.84.26l1-.08h0l3.59-.26c10.66-.74,21-1.1,30.82-1.08,10.6,0,21,.48,30.78,1.37,4.14.38,8.26.84,12.26,1.37,5.2.69,11.67,1.55,15,7.64,1.94,3.51,2.63,7.93,2,13.11-.38,3.32-2,11.37-8.56,14.43-3,1.39-6.32,1.4-9.28,1.41l-20.31.07c-28.75.11-58.45.21-87.7-.61a8.57,8.57,0,0,1,2.92,4.92,9.3,9.3,0,0,1-1,5.71,53.29,53.29,0,0,1,3.14,6.61C444,210.65,445,214,444,217s-4,5.27-8.39,6.3a20.91,20.91,0,0,1-9.79.06c-3.16-.8-5.44-2.57-6.26-4.85l0-.06a55,55,0,0,1-24.36,4.74c-5.34-.21-9.29-1.26-12.43-3.28a13.8,13.8,0,0,1-3.69-3.48l-.27-.28c-3-3.4-3.46-8-3.26-12.44A89.54,89.54,0,0,1,367,226c-2.1,3.86-4.84,8-9.29,9.74A11.89,11.89,0,0,1,353.44,236.52Zm35.42-120.63a7.5,7.5,0,0,0-.82,0c-3.22.29-6.09,2.28-8.88,4.2-.42.3-.84.59-1.27.87a63.28,63.28,0,0,1-15.72,7.72l-.5.16a14,14,0,0,0-4,1.8c-2.38,1.78-3.17,5-3.4,7.37a47,47,0,0,0,.5,10.24c.5,4.08,1,8.31.25,12.48-1.2,6.46-5.25,11.74-9.17,16.85a82.89,82.89,0,0,0-5.51,7.77,39.94,39.94,0,0,0-1.1,38.33,22.3,22.3,0,0,0,7.3,8.64,11.9,11.9,0,0,0,10.5,1.52c3.85-1.47,6.33-5.29,8.25-8.82a88.28,88.28,0,0,0,9.5-27.7l-3.59,2.33-4.77,3.1a4.23,4.23,0,0,1-1.07,1.69c-3.16,3.35-6.7,6.93-10.83,11-2.69,2.63-5.63,5.23-9.35,5.56a2.69,2.69,0,0,1-2.38-.73,2,2,0,0,1-.51-1.55,4.29,4.29,0,0,1,1.69-2.62c6.13-4.83,12.66-9.28,19.18-13.57a7.78,7.78,0,0,1-1.15.39,4.09,4.09,0,0,1-4.5-2.79,7.61,7.61,0,0,1,.18-4.89A19.15,19.15,0,0,1,373,182.18a4.52,4.52,0,0,1,3.39.55c1.53,1.12,1.5,3.23,1.46,4.25a119.1,119.1,0,0,1,20.89-46.23c2.08-2.81,4.47-5.53,7.79-6.39a9.74,9.74,0,0,1,7.56,1.37,148,148,0,0,1-11.4-11q-1.51-1.59-3.07-3.18C397.05,118.9,393.18,115.89,388.86,115.89Zm32.49,101.72c0,.08,0,.16.08.24.84,2.33,3.69,3.28,4.87,3.58a18.93,18.93,0,0,0,8.85-.07c2.59-.6,5.89-2,7-5,.83-2.41,0-5.12-.8-7.21a49,49,0,0,0-2.46-5.31,23.7,23.7,0,0,1-2.95,3.49A54.14,54.14,0,0,1,421.35,217.61Zm-33.18,2.57a29.91,29.91,0,0,0,7.07,1,53,53,0,0,0,24-4.79,8,8,0,0,1,1.69-4.68,15.88,15.88,0,0,1,5.18-4.08l1.24-.67a26.47,26.47,0,0,0,4-2.41,3.84,3.84,0,0,0,1.23-1.39,2.62,2.62,0,0,0-.93-2.79,6.18,6.18,0,0,0-3.54-1.21c-.62-.05-1.25-.06-1.87-.08a22.67,22.67,0,0,1-2.58-.14,7.29,7.29,0,0,1-4.56-2.07,4.37,4.37,0,0,1-.63-5.3,5.4,5.4,0,0,1,2.52-1.82,20,20,0,0,1,6.07-1.32c.58,0,1.14-.08,1.69-.09a4.3,4.3,0,0,1-.6-1.28,4.4,4.4,0,0,1-.13-1.64,42,42,0,0,1-3.32-8.66c-1-4-.94-7.28.18-10.05,2.76-6.81,10.93-8.85,17.75-9.87q7.37-1.11,14.47-1.92-1.67-.19-3.3-.51a87.18,87.18,0,0,1-13.15-3.61A89.85,89.85,0,0,1,416.88,138l-.34-.26c.32.33.61.67.88,1,9.81,12.58-3.51,27.68-7.82,32q-3.87,3.87-8.05,7.39c6.63,2,11.11,9.18,11.22,15.71.11,7.05-3.69,14.43-10.43,20.24-3.85,3.31-7.55,5.23-11.32,5.89A15.29,15.29,0,0,1,388.17,220.18ZM360.32,206.8c-5.17,3.47-10.29,7.06-15.15,10.88a2.21,2.21,0,0,0-.93,1.26s.15.13.72.08c3.07-.27,5.59-2.52,8.13-5S358.11,209.06,360.32,206.8Zm20.26,8.36a11.54,11.54,0,0,0,10.1,2.82c3.4-.59,6.79-2.37,10.35-5.44,6.3-5.42,9.85-12.23,9.74-18.69-.11-6.21-4.64-13.13-11.16-14.13-2.54,2.08-5.15,4.08-7.8,6a2.79,2.79,0,0,0,.81,1.2c1.32,1.13,3.32.93,5.43.71.6-.06,1.19-.12,1.76-.15a7.29,7.29,0,0,1,5.81,2.38,3.48,3.48,0,0,1,.61,3.24c-.59,1.82-2.41,2.66-3.73,3.14a50.48,50.48,0,0,1-7.7,1.87,55.22,55.22,0,0,0-6.73,1.57c-4.1,1.34-8.69,4.42-9.31,9.05A9,9,0,0,0,380.58,215.16Zm48.54-24.8c-.62,0-1.27,0-2,.08a18,18,0,0,0-5.47,1.18,3.44,3.44,0,0,0-1.63,1.1,2.43,2.43,0,0,0,.44,2.81,5.59,5.59,0,0,0,3.35,1.44,20.29,20.29,0,0,0,2.37.13c.67,0,1.34,0,2,.09a8.11,8.11,0,0,1,4.66,1.66,4.55,4.55,0,0,1,1.49,5.09,5.63,5.63,0,0,1-1.85,2.21,29.53,29.53,0,0,1-4.27,2.6l-1.21.65a14.06,14.06,0,0,0-4.56,3.54,6.12,6.12,0,0,0-1.16,2.45,52,52,0,0,0,13.16-9.47,21.11,21.11,0,0,0,3.27-4.07c-1.29-2.25-2.67-4.45-4-6.61-1-1.59-2-3.19-3-4.81C430.22,190.38,429.68,190.36,429.12,190.36ZM378.44,195q-.49,3.31-.78,6.66a41.15,41.15,0,0,0-.18,4.32c1.73-4.12,6-6.85,10-8.13a54.62,54.62,0,0,1,7-1.63,50.06,50.06,0,0,0,7.39-1.79c1.45-.52,2.27-1.13,2.5-1.87a1.43,1.43,0,0,0-.28-1.4,5.24,5.24,0,0,0-4.12-1.61c-.54,0-1.1.08-1.66.14-2.33.24-5,.5-6.94-1.18a4.84,4.84,0,0,1-1.18-1.51C386.29,189.71,382.37,192.36,378.44,195Zm-4.31-10.87a7.88,7.88,0,0,0-.86.07,17.4,17.4,0,0,0-13.71,11.69,5.73,5.73,0,0,0-.2,3.63,2.14,2.14,0,0,0,2.17,1.5,6,6,0,0,0,1-.35c.92-.37,2.42-1,3.4.08l4.14-2.69,5.07-3.29c.35-2.56.58-5.14.69-7.71,0-1,0-2.19-.63-2.66A1.86,1.86,0,0,0,374.13,184.08Zm59.23,6.83,2,3.26c1.13,1.78,2.27,3.59,3.36,5.43a6.85,6.85,0,0,0,.24-3.15,7.27,7.27,0,0,0-4.43-5.11A11.52,11.52,0,0,0,433.36,190.91Zm-24.69-54.82a6.3,6.3,0,0,0-1.66.21c-2.86.74-4.95,3.3-6.69,5.64a117.23,117.23,0,0,0-21.46,50.33c3.61-2.39,7.21-4.85,10.74-7.4a6.37,6.37,0,0,1,1.33-4.27,8.92,8.92,0,0,1,7.2-3l.87,0c3.19-2.63,6.26-5.39,9.18-8.32,4-4,16.47-18.08,7.66-29.37A9.61,9.61,0,0,0,408.67,136.09Zm25,52.81a15,15,0,0,0,2.4.23c29.89.89,60.3.78,89.71.67l20.32-.07c2.74,0,5.86,0,8.44-1.22,5.67-2.64,7.07-9.86,7.42-12.85.54-4.76-.06-8.77-1.8-11.91-2.68-4.83-7.51-5.83-13.56-6.63-4-.52-8.07-1-12.18-1.35-9.77-.89-20.06-1.35-30.61-1.37-9.75,0-20.06.34-30.67,1.07l-3.39.25-.53.13c-2.72.65-5.54,1.41-8.26,2.15A132.67,132.67,0,0,1,444,161.83c-1.77.25-3.78.6-5.14,1.82a3.64,3.64,0,0,0-1.18,2.46,2.09,2.09,0,0,0,.52,1.57,4.82,4.82,0,0,0,2.33,1.09c17.79,4.86,36.71,4.45,55,4,14.53-.31,29.55-.64,44.1,1.63.79.12,3.47.67,4.68,2.43a3,3,0,0,1,.47,2.37c-.4,1.89-2.33,2.93-5.44,2.93h0L437.64,182a12.41,12.41,0,0,0-5.48.8,4.21,4.21,0,0,0-2.1,2.35c.57,1.09,1.17,2.17,1.79,3.24a5.21,5.21,0,0,0,.79.28Zm-37.23-9.17a6.34,6.34,0,0,0-3.9,2.12,4,4,0,0,0-.72,1.42Q394.12,181.55,396.4,179.73Zm60.83-22.8c-4.69.54-9.49,1.18-14.37,1.91-6.28.94-13.81,2.77-16.18,8.64-1,2.37-1,5.25-.1,8.82A37,37,0,0,0,429,183a6.42,6.42,0,0,1,2.29-1.94,14.05,14.05,0,0,1,6.38-1l101.72.17h0c1,0,3.23-.13,3.49-1.35a1,1,0,0,0-.17-.82,5.29,5.29,0,0,0-3.34-1.58c-14.37-2.25-29.31-1.92-43.75-1.61-18.44.41-37.5.83-55.58-4.11a6.66,6.66,0,0,1-3.27-1.65,4.14,4.14,0,0,1-1-3,5.68,5.68,0,0,1,1.84-3.86c1.7-1.52,4-2,6.22-2.31A109,109,0,0,0,457.23,156.93Z"/><path d="M240.21,194.33a1.52,1.52,0,0,1-.42-.06,2.33,2.33,0,0,1-1.32-1,13.93,13.93,0,0,1-1.88-5.54c-.42-2.26-.9-4.57-1.36-6.81a135.2,135.2,0,0,1-2.8-17.24c-.29-3.95-.34-8.09,1.26-11.63,2.18-4.78,6.79-5.32,11-5.2L251,147c8.88.24,17.91.55,26.64.85,18.22.63,37.06,1.27,55.58,1.27v2c-18.56,0-37.41-.64-55.65-1.27-8.72-.3-17.75-.61-26.63-.85l-6.23-.16A20.87,20.87,0,0,0,241,149a2.75,2.75,0,0,1,1,1.83,22.27,22.27,0,0,1,.32,2.78h6.18c7.78,0,15.66.44,23.27.86,5.51.31,11.21.62,16.81.77s11.54,0,17.16-.11c3.15-.07,6.41-.14,9.62-.17,5.27,0,9.54.06,13.46.31.58,0,1.29,0,2.06.07,3.42.06,7.68.14,9.83,2.13,3.1,2.87,1.45,7.29.24,10.52-.16.44-.32.86-.45,1.25a122.22,122.22,0,0,1-4.81,12.35c-2.52,5.32-5.67,11.95-13.27,12.48-4.22.3-8.53.18-12.68.07-2-.06-4-.11-6-.12-5.61,0-11.32,0-16.84,0h-2.09c-4.87,0-9.83,0-14.62,0-8.64-.07-17.58-.14-26.35.21a5.42,5.42,0,0,1-2.49-.35l-.13.1A1.82,1.82,0,0,1,240.21,194.33Zm2.11-2.19a4.32,4.32,0,0,0,1.45.11c8.81-.35,17.78-.28,26.45-.21l3.67,0-2.52-.24a72.17,72.17,0,0,1-20.46-4.68,23,23,0,0,1-8.4-5.81c-.12,2-.26,4-.44,6a14.7,14.7,0,0,1,.3,4.44C242.36,191.93,242.34,192,242.32,192.14Zm57.34-.13h4.1c2,0,4,.06,6,.12,4.11.11,8.36.23,12.49-.06,6-.42,8.68-5.18,11.61-11.35a120.29,120.29,0,0,0,4.72-12.15c.14-.4.3-.83.47-1.29,1.06-2.85,2.39-6.39.27-8.36-1.59-1.47-5.75-1.54-8.51-1.59-.8,0-1.54,0-2.15-.07-3.87-.25-8.1-.34-13.32-.31-3.19,0-6.44.1-9.58.17-5.65.13-11.5.26-17.26.11s-11.34-.47-16.87-.77c-7.59-.42-15.44-.86-23.16-.86h-6a216.15,216.15,0,0,1,.2,22.91,22.17,22.17,0,0,0,9,6.78,70.73,70.73,0,0,0,19.91,4.54,140.3,140.3,0,0,0,15.27.69v1.54h0C291.08,192,295.38,192,299.66,192Zm-64.6-22.87c.57,3.81,1.36,7.62,2.13,11.35.46,2.25.94,4.58,1.36,6.86a14.76,14.76,0,0,0,1.23,4.21,7.25,7.25,0,0,1,0-1.5q.13-1.27.24-2.55c-.16-.75-.35-1.51-.53-2.25-.14-.55-.28-1.09-.4-1.62l-.2-.87c-.61-2.65-1.25-5.4-1.72-8.14l-.12-.74A32.59,32.59,0,0,1,235.06,169.14Zm4.94,9.34c.17.8.35,1.59.53,2.37l.09-1.63-.33-.38Zm-1-5.28a27.14,27.14,0,0,0,1.74,2.92c.23-6.84.14-13.69-.3-20.51h-.21a7.06,7.06,0,0,0-1.91,1c0,.38-.06.76-.08,1.14A72.55,72.55,0,0,0,239,173.2Zm-2.86-13.15a13,13,0,0,0,.07,5.55C236.12,163.75,236.1,161.9,236.14,160.05Zm1.51-9.83a6.28,6.28,0,0,0-2.14,2.64,16.28,16.28,0,0,0-1.23,6.44h0a8,8,0,0,1,2.12-3.66,21.31,21.31,0,0,1,.93-4.61A6.67,6.67,0,0,1,237.65,150.22Zm2.19.44s-.09.05-.17.12a2.27,2.27,0,0,0-.45.88,16,16,0,0,0-.6,2.46,9.34,9.34,0,0,1,1.12-.45l.16-.06h.41a24,24,0,0,0-.28-2.4C239.94,150.77,239.86,150.67,239.84,150.66Z"/><path d="M198,237.08a26.06,26.06,0,0,1-5.39-.49l.41-2a28,28,0,0,0,6.67.41c-3.72-2.58-5.8-7.26-7.24-11.29-7.73-21.66-10.74-45.73-9-71.56a237.18,237.18,0,0,1,3.71-28.13,296.58,296.58,0,0,1,7.17-29c2.77-9.25,6.1-18.8,9.89-28.4l1.86.74c-3.77,9.54-7.08,19-9.83,28.24-2.17,7.24-4.05,14.41-5.6,21.4a218.51,218.51,0,0,1,14.16-37.32c1.08-2.23,2.87-5.2,5.89-5.32a5.64,5.64,0,0,1,5,3.42,12.88,12.88,0,0,1,.9,5.59q0,.91,0,1.83c1.09-2.47,2.26-4.91,3.5-7.3.57-1.09,2.3-4.42,5.33-4.25,2.06.12,3.67,1.8,4.8,5,3.08,8.76,5.22,18.8,6.72,31.58,1.79,15.31,2.34,31,2.87,46.08.76,21.82,1.55,44.38,1,66.6-.11,4.28-.65,8.59-3.83,11-2,1.56-4.56,1.92-7,2.17-6.49.64-13.06.66-19.42.68h-1a18.77,18.77,0,0,1-5.31,0l-2.49.09C200.49,237,199.25,237.08,198,237.08Zm-6.18-21.69c.77,2.59,1.61,5.16,2.51,7.69,1.61,4.52,4.06,9.9,8.76,11.47a9.24,9.24,0,0,0,1.28.33h.47c1.52,0,3,0,4.55,0l.23,0c1.87-.26,4.15-.77,5.29-2.37.89-1.24,1-3,1-4.8a269,269,0,0,0-4.65-48.77,236.39,236.39,0,0,1-4-32.75c-.21,2.72-.48,5.45-.87,8.15-.29,2-.66,4.06-1.07,6.07,5.17,14.21,4.51,29.48,3.86,44.28-.24,5.59-.5,11.37-.42,16.95,0,.31,0,.67,0,1a25.26,25.26,0,0,1-.42,6.67c-.92,3.59-3.17,4.4-4.9,4.46h-.09c-3.91,0-7.33-7.36-9.88-13.79l-.14-.33C192.79,218.22,192.28,216.81,191.81,215.39ZM216.17,91.61c-.68,6.24-1.95,12.4-3.2,18.42-1.16,5.61-2.36,11.4-3.05,17.13-2.09,17.38.34,35,3.27,51.35a271.11,271.11,0,0,1,4.68,49.13c0,2.16-.12,4.23-1.34,6a6.07,6.07,0,0,1-1.15,1.22c4.77-.05,9.62-.18,14.4-.65,2.25-.23,4.4-.53,6-1.76,2.51-2,2.95-5.72,3-9.51.58-22.16-.21-44.69-1-66.48-.53-15.09-1.08-30.69-2.86-45.92-1.48-12.63-3.58-22.53-6.62-31.15-.83-2.35-1.85-3.58-3-3.65s-2.28,1-3.43,3.18A119.65,119.65,0,0,0,216.17,91.61Zm-30.31,77a148.92,148.92,0,0,0,4.47,34.21,130.53,130.53,0,0,0,4.87,16.06l.14.34c4.31,10.86,6.86,12.52,8,12.52h0c1.07,0,2.37-.4,3-2.95a23.66,23.66,0,0,0,.36-6.12q0-.58,0-1.08c-.08-5.63.18-11.44.42-17.06.59-13.5,1.2-27.39-2.69-40.35-.52,2.24-1.08,4.46-1.66,6.66A66.93,66.93,0,0,1,205,186.07c0,1.91-.11,4.06-1.6,5.48-2.32,2.23-6.15,1.07-8.72-1.23C189.42,185.66,186.53,178.52,185.86,168.6Zm8.27-18.07a4.94,4.94,0,0,0-1.14.14c-4.3,1.07-5.13,7.19-5.24,10.75-.41,13.13,2.28,22.1,8.22,27.41,1.84,1.64,4.58,2.65,6,1.28.92-.88,1-2.44,1-4a64.43,64.43,0,0,0-1.25-11.18c-.1.35-.19.7-.29,1.05a4.32,4.32,0,0,1-1.75,2.84c-1.84,1.06-3.84-.3-5-1.79a17.2,17.2,0,0,1-3.32-13,5.25,5.25,0,0,1,1.47-3.21c1.63-1.48,4.17-1.05,5.69.24a10.07,10.07,0,0,1,2.68,4.51c.18.5.35,1,.51,1.51.55-2.19,1.07-4.39,1.53-6.6-.32-.86-.67-1.71-1-2.56C200.53,154.07,197.48,150.53,194.13,150.53Zm1.21,11.36a1.73,1.73,0,0,0-1.18.42,3.42,3.42,0,0,0-.84,2.05,15.15,15.15,0,0,0,2.93,11.45c.7.9,1.79,1.65,2.42,1.29a2.74,2.74,0,0,0,.82-1.63c.42-1.54.84-3.08,1.25-4.63q-.63-2.33-1.44-4.6a8.31,8.31,0,0,0-2.08-3.65A3.09,3.09,0,0,0,195.34,161.89Zm15.56-85.5h-.09c-1.95.08-3.31,2.43-4.17,4.19-12.48,25.7-19.44,52.21-20.62,77.6.75-5.27,3-8.59,6.48-9.46,5.18-1.29,9.35,3.54,11.42,8.16.17-1,.33-1.94.47-2.92.84-5.83,1.12-11.84,1.4-17.65.2-4.37.41-8.88.86-13.32a125.26,125.26,0,0,1,7.56-31.86,77.07,77.07,0,0,0,.45-7.74,11.27,11.27,0,0,0-.71-4.74A3.74,3.74,0,0,0,210.9,76.39Zm1.26,27.6a122.6,122.6,0,0,0-3.08,15.44c.59-3.3,1.27-6.58,1.93-9.8C211.4,107.76,211.79,105.88,212.16,104Z"/><path d="M669,368.36c-8.52,0-17.74-2.32-24.67-4.06l-2-.49c-20.48-5.08-36-12.47-48.94-23.26-11.36-9.48-18.85-23.46-22.91-42.74-3.51-16.64-5.32-35.12-5.71-58.15a316.28,316.28,0,0,1,5.06-60.82c.16-.86.29-2,.45-3.34.71-5.87,1.77-14.75,6.29-17.75a6.11,6.11,0,0,1,3.56-1A32.22,32.22,0,0,1,569,147.15c-6.65-9.6-5.16-21.46-3.67-27.67a55.82,55.82,0,0,1,6.26-15.43,59.87,59.87,0,0,1,18-19.12,65,65,0,0,1,40.94-10.71c4.26.3,6.9,1.91,7.43,4.52a4.9,4.9,0,0,1-2.15,4.89,6,6,0,0,1-1.77.83,10.43,10.43,0,0,1-3.16,3.39,26.28,26.28,0,0,1-5.79,2.77c-1.68.64-3.28,1.26-4.86,1.9A81.67,81.67,0,0,0,605.44,100c-.06.26-.12.5-.18.74a10.25,10.25,0,0,1-.61,2.67c-.13.38-.25.74-.33,1.07l-6.84,27.1a8.7,8.7,0,0,1-1.18,3,3.63,3.63,0,0,1-3.38,1.62,4.76,4.76,0,0,1-.52-.1c.2,3.86,1,7.73,3.88,11a24.55,24.55,0,0,0,8.06,5.63,84.64,84.64,0,0,0,12.33.17l17.92-.62c1.5,0,5.89-.21,7.55,2.73,2.06-.84,4.12-1.72,6.18-2.62,3.5-1.52,6.46-2.77,9.51-3.91,12.16-4.05,25.43-5.08,38.28-6.06,9-.83,20.95-4,26.18-14.45.66-1.55,1.25-3.23,1.82-4.86,1.92-5.48,3.9-11.14,9.68-13.61a10.88,10.88,0,0,1,8.41.5,6.15,6.15,0,0,1,3,4.22v5.36l0,.15c-2,6.13-5.08,10.21-9.16,15.31a61.78,61.78,0,0,1-10.06,9.72l-1,.83c-3,2.35-6.29,5-10,6.18-1,.3-1.95.63-2.92,1,3.65,4.26,4.16,10.21,4.62,15.51.15,1.75.29,3.4.53,5a90.39,90.39,0,0,1,0,29.37c-2.44,10.37-7.1,19.69-11.61,28.71a193.2,193.2,0,0,0-8.44,18.47c-1.79,6-2.6,13.84-.93,19.44.13-6.14,6.16-9.8,12-9.8,5.11,0,10.31.1,15.34.2,17.63.34,35.86.69,54.4-3.16a29.84,29.84,0,0,1,4.54-1.11A12.45,12.45,0,0,1,785,253a18.22,18.22,0,0,0,1.53-1.29l.16-.17.23-.07a10.52,10.52,0,0,1,10,2.24A9.5,9.5,0,0,1,799,262c-.85,4.07-4.22,8.2-8.38,10.28-15.91,6.48-32.75,7.82-49.62,7.62q-11.31,1.29-22.6,1.58c4.19,3.36,7,7,8.29,10.89,1.14,3.35,1.17,8.62-1,12.22a7.6,7.6,0,0,1-5.37,3.78,16,16,0,0,1-11-1.46l-.09,0c-2.73,1.38-4.12,3.35-4.25,6-.16,3.26,1.57,7,3.93,10.42h.2c46.86-1.06,88.24,2.44,130.2,11l.12,0a7.51,7.51,0,0,1,3.63,2.55,7.88,7.88,0,0,1,5.65,1.59c4,3,4.8,7.24,2.3,12.25A15.84,15.84,0,0,1,835,358.35c-10.53-2.48-20.35-6.11-29.84-9.62-5.95-2.2-12.11-4.48-18.29-6.41-11.83-3.29-24-3.06-35.69-2.84-4.92.09-10,.18-15,0a7.65,7.65,0,0,1,1.95,3.62c1.68,9.22-5.16,16.2-18.75,19.22l-.12,0c-11.54,1.05-21.2-2.22-28-9.45a16.59,16.59,0,0,1-1.46,4.8C685.83,365.88,677.79,368.36,669,368.36ZM580.06,158.72a4.14,4.14,0,0,0-2.36.7c-3.75,2.49-4.79,11.15-5.41,16.32-.16,1.36-.3,2.53-.47,3.45a313.93,313.93,0,0,0-5,60.44c.38,22.9,2.19,41.26,5.67,57.77,4,18.82,11.23,32.43,22.23,41.62,12.67,10.58,28,17.84,48.14,22.85l2,.49c13.51,3.4,36.11,9.08,43.17-5.52a15,15,0,0,0,1.45-6,44.68,44.68,0,0,1-10.23-35.66c1-4.21,2.11-8.46,5.43-10.68a13.39,13.39,0,0,1,6.61-2.77c1-7.09,1.66-13.92.78-21.07-.24-1.92-.55-3.91-.85-5.83-1.14-7.33-2.33-14.91-.16-22.25a36,36,0,0,1,3.35-7.28,45.57,45.57,0,0,0,2.6-5.18,33.33,33.33,0,0,0,1.78-8.65c.22-1.83.44-3.73.84-5.59,1.24-5.66,4.22-10.58,7.11-15.34,1.11-1.83,2.26-3.72,3.28-5.61a30.37,30.37,0,0,0,3.71-10.32c0-.17.06-.37.09-.59.11-.75.45-3,.09-3.59a.61.61,0,0,1-.07-.1,10.53,10.53,0,0,0-.54,1.88c-1.57,7.28-5.54,13.75-9.37,20-1.17,1.9-2.37,3.87-3.47,5.8-1.95,3.44-4,6.91-6,10.26-3,5-6,10.15-8.81,15.32-2.07,3.86-4,7.51-7.31,10.6a46.2,46.2,0,0,1-6.15,4.65c-1.16.77-2.36,1.57-3.48,2.41a37.94,37.94,0,0,0-4.56,4.08l-1.84,2.2-3.56,4.29c-2.26,3.07-4.34,6.28-6.3,9.31l-.09.14a61.58,61.58,0,0,0-5.86,12.36c-.92,2.48-2,3.77-3.16,3.86-.55.06-1.35-.15-2-1.34-.9-1.64.65-4.37,2.17-6.8l.28-.45a153,153,0,0,1,13.38-18.3,65.11,65.11,0,0,1,5.5-6.61,169.1,169.1,0,0,0,14.57-19.53c4.54-7.41,8.87-15.25,13.07-22.83l1.19-2.16c3.16-5.54,3.9-7.7,4-8.53a12.85,12.85,0,0,0-2.72,2.42l-.22.22a57.61,57.61,0,0,0-4.76,5.92c-1,1.38-2.06,2.8-3.17,4.14a82.25,82.25,0,0,1-10.28,10.25,168.53,168.53,0,0,1-23.09,15.88c-7.84,4.63-15.54,9.75-23,14.71l-2.59,1.72-.92.63c-11.66,8-18,11.31-20.47,10.63a1.86,1.86,0,0,1-1.25-1c-1.44-3,5.18-6.74,9.25-8.7,2.22-1.08,4.54-2,6.79-2.82s4.47-1.7,6.6-2.73c8-3.87,13.59-9.87,19.49-16.24l.87-.94c4.59-4.95,9.69-9.49,14.62-13.88,8.56-7.62,17.4-15.5,23.64-25.61,2.74-4.44,6.72-12.75,2.59-18.54-3.91-5.49-13.7-4.54-20.86-3.85-1.23.12-2.38.23-3.41.3-22.38,1.53-43.56-5.43-59.54-11.67a46.51,46.51,0,0,1-11.29-6.21c-.74-.55-1.49-1.16-2.26-1.79-2.46-2-5-4-7.74-4.84A6.41,6.41,0,0,0,580.06,158.72ZM691.44,350.14c.16.19.32.37.49.55,6.43,7.35,15.8,10.7,27.1,9.68,7.29-1.63,19.14-6,17.17-16.83-.7-2.8-2.59-4.15-5.92-4.18a19.58,19.58,0,0,0-5.19,2.28c-3,1.66-6.07,3.38-10.07,2.71a14.29,14.29,0,0,1-2.91-1.09,2.25,2.25,0,0,1,.35,1,2,2,0,0,1-.46,1.59,2.63,2.63,0,0,1-2,.81h-.22a10.4,10.4,0,0,1-5.34-1.93,37.22,37.22,0,0,1-6.6-4.9,25.5,25.5,0,0,1-4.28-5.25c-4.85-7.92-4.45-17.2-3.29-26.05.17-1.28.35-2.56.52-3.83l.12-.86a12,12,0,0,0-5.18,2.35c-2.72,1.82-3.65,5.52-4.63,9.45a42.48,42.48,0,0,0,8.06,31.76,23.83,23.83,0,0,0-2.89-8l1.73-1A24.27,24.27,0,0,1,691.44,350.14Zm68.66-12.78c9,0,18.23.51,27.35,3,6.26,2,12.45,4.24,18.42,6.45,9.44,3.5,19.2,7.11,29.54,9.54a13.79,13.79,0,0,0,13.92-6.54c2-4,1.43-7.3-1.75-9.69a5.9,5.9,0,0,0-3.43-1.24,6,6,0,0,1,0,3.63c2.11,3.36,3.43,7.92.81,11.41l-.09.11a7.09,7.09,0,0,1-9.41,0l-.13-.15c-1.57-2.36-1.53-5.8-.57-8.8-6.69-1.21-13.54-2.31-20.89-3.35-9.06-1.27-19-2.46-30.32-3.63-9.65-1-19.47-1.89-29-2.76l-1.35-.12c-3.25-.3-6.51-.58-9.76-.86l-11.27-1-4.51-.42c-.31,0-.64-.05-1-.06a9.84,9.84,0,0,1-3.1-.49,3.36,3.36,0,0,1-2-3.25c.19-1.33,1.57-2.18,2.38-2.57,2.69-1.3,5.82-.92,8.59-.59.61.08,1.21.15,1.8.2,3.38.3,7.21.65,11,.89q6.21.39,12.44.71c7.28.4,14.82.81,22.23,1.44,5,.42,10.06.73,15,1,5.4.32,10.91.66,16.41,1.15-32.29-4.91-65-6.86-101-6.1a35.82,35.82,0,0,0,7.8,7.44l.21.12a35.41,35.41,0,0,0,14.82,4.47c5.92.33,12,.21,17.89.11C754.12,337.42,757.1,337.36,760.1,337.36ZM837,352.72a5.16,5.16,0,0,0,6.47,0c1.69-2.33,1-5.54-.43-8.23-1.57,1.84-3.68,2.24-6.3,1.21C835.9,348.11,835.8,350.89,837,352.72ZM693,303.8c-.05.38-.11.76-.16,1.14-.17,1.27-.35,2.54-.52,3.82-1.11,8.49-1.51,17.36,3,24.75a23.6,23.6,0,0,0,4,4.83,35.48,35.48,0,0,0,6.25,4.64,8.67,8.67,0,0,0,4.47,1.65,1.05,1.05,0,0,0,.51-.13,1.22,1.22,0,0,0-.42-.58,11,11,0,0,0-2.39-1.54,10.32,10.32,0,0,1-3.47-2.57,14.7,14.7,0,0,1-2.18-4.42,52.88,52.88,0,0,1-2.13-10.94c-.13-1-.24-2-.35-3-.26-2.3-.52-4.67-.89-7-.29-1.79-.6-3.26-1-4.63-.06-.23-.13-.49-.19-.76a9.7,9.7,0,0,0-1.13-3.09A5.27,5.27,0,0,0,693,303.8Zm144.49,40.05c1.74.7,3.19.65,4.38-1.17a13.92,13.92,0,0,0-1.37-1.61l-.6-.56a7.42,7.42,0,0,0-1.8,2.3l-.06.11A8.43,8.43,0,0,0,837.47,343.85ZM728.59,327.7a8.36,8.36,0,0,0-3.69.71c-.82.4-1.25.87-1.27,1.06a1.49,1.49,0,0,0,.74,1.1,8.12,8.12,0,0,0,2.46.35l1.08.07,4.5.41q5.63.53,11.26,1c3.26.28,6.52.56,9.77.86l1.35.12c9.5.87,19.33,1.76,29,2.76,11.37,1.17,21.31,2.36,30.39,3.64,7.53,1.06,14.53,2.19,21.37,3.44a13.93,13.93,0,0,1,.78-1.37,9.4,9.4,0,0,1,1.94-2.59c-4.89-3.26-11.94-4.13-17.77-4.84l-1.2-.15c-8.08-1-16.35-1.51-24.35-2-4.92-.29-10-.6-15-1-7.38-.62-14.9-1-22.17-1.43-4.15-.22-8.31-.45-12.46-.72-3.81-.24-7.66-.58-11-.89-.6,0-1.22-.13-1.86-.2A30.57,30.57,0,0,0,728.59,327.7Zm-22.63,8c3,3,5.77,5.74,9.47,6.66,3.23.53,5.88-.93,8.69-2.5,1-.52,1.92-1.06,2.92-1.51a32.91,32.91,0,0,1-9.62-3.77l-.23-.14a38.1,38.1,0,0,1-9.14-9A6.74,6.74,0,0,0,705,327C703.24,329.69,704.33,333.25,706,335.73Zm135.68,3.68a3,3,0,0,1,.25.25c.17.17.35.35.52.54a4.19,4.19,0,0,0-.27-1ZM705.31,337.9a6.2,6.2,0,0,0,.47.67,6.09,6.09,0,0,0,1.74,1.43C706.76,339.33,706,338.61,705.31,337.9Zm130.46-2.2A20.79,20.79,0,0,1,840,338a9.85,9.85,0,0,1,1-.48,5.7,5.7,0,0,0-2-1.21C837.87,336.12,836.82,335.9,835.77,335.7ZM693.25,301.82a7.25,7.25,0,0,1,4.73,2.94,11.06,11.06,0,0,1,1.47,3.81c.06.26.12.5.18.73a48.6,48.6,0,0,1,1,4.82c.38,2.36.65,4.76.91,7.08.11,1,.22,2,.34,3,.15,1.21.3,2.47.49,3.76a7.22,7.22,0,0,1,1-2.16l.13-.15a8.41,8.41,0,0,1,3.35-1.93c-2.32-3.54-3.94-7.41-3.78-10.87a8.72,8.72,0,0,1,4.53-7.27,11.55,11.55,0,0,1-2.23-2.67c-4.56-6.11-6.17-13.25-5-22.24-2-1.24-3.09-3.68-3.64-6.05l-.32-.41c-4.92-6.62-3.07-18.92-1.2-25.14.53-1.44,1.1-2.86,1.7-4.26-.27.5-.55,1-.82,1.48a34.72,34.72,0,0,0-3.19,6.88c-2,6.9-.88,14.26.23,21.37.3,1.94.61,3.94.85,5.89C694.91,287.77,694.2,294.67,693.25,301.82Zm18.61,4a14.91,14.91,0,0,0,8.13.53,5.58,5.58,0,0,0,4-2.83c1.82-3.05,1.78-7.71.81-10.55-1.35-4-4.45-7.72-9.21-11.17l-.43-.3c-1.73,0-3.45,0-5.17,0a4.31,4.31,0,0,0,1.28,3.54,27.35,27.35,0,0,0,3.17,2.87c2.28,1.85,4.62,3.76,5.45,6.72a8.38,8.38,0,0,1-2.76,8.48,16.79,16.79,0,0,1-5.09,2.63Zm-9.54-24.48c-1,8.26.48,14.82,4.66,20.39l.06.09a9.46,9.46,0,0,0,2.52,2.76c.6-.25,1.19-.48,1.78-.7a15.08,15.08,0,0,0,4.51-2.29,6.45,6.45,0,0,0,2.12-6.41c-.65-2.35-2.66-4-4.78-5.71a30.1,30.1,0,0,1-3.4-3.09,6.58,6.58,0,0,1-1.82-4.89C706.08,281.49,704.2,281.44,702.32,281.37Zm-56,7.22-.86,1.39-.3.48c-2.26,3.61-2.22,4.54-2.1,4.77a1.37,1.37,0,0,0,.16.25,7,7,0,0,0,1.37-2.49C645.09,291.55,645.66,290.08,646.29,288.59Zm56.32-9.21q3.14.12,6.27.15a3.93,3.93,0,0,1,1.4-1l-5.13-.21h0a13.37,13.37,0,0,1-2.32-.19C702.75,278.57,702.68,279,702.61,279.38Zm11.79-.61a10.5,10.5,0,0,1,1.36.75q4-.06,8-.26L719,279Zm-14.59-1.62a5.52,5.52,0,0,0,.94,1.26l.15-.77C700.52,277.49,700.16,277.33,699.81,277.15Zm3.52-.93a12.28,12.28,0,0,0,1.85.14c4.62.17,9.34.42,13.9.66,7.23.38,14.54.76,21.84.85a267.06,267.06,0,0,0,38.91-7.45c2-1,3.28-1.74,3.35-2.94-1-3.53-4.69-5.12-8-5.12-7.38,0-14.95,1.71-22.28,3.35-2.46.56-5,1.13-7.52,1.63-8.37,1.53-16.8,1.33-25,1.15-2.66-.06-5.42-.12-8.12-.13C708.05,269.24,705.27,271.67,703.33,276.22Zm81.8-9.21a.43.43,0,0,1,0,.11l0,.24c0,2.62-2.41,3.83-4.55,4.9l-.19.07c-7.59,2.05-15.23,3.75-22.87,5.12,11-.8,21.86-2.79,32.24-7a14.41,14.41,0,0,0,3.54-2.55l-.72.37-.28.09A9.94,9.94,0,0,1,785.13,267Zm-161.94-1.49c-1.14.46-2.29.9-3.42,1.33-2.2.84-4.49,1.71-6.63,2.75-5.48,2.64-8.63,5.38-8.32,6C605.12,275.75,607.72,276.12,623.19,265.52Zm75.42,8.19a7.77,7.77,0,0,0,2.78,2c2.22-5.33,5.59-8.29,10.6-9.29l.19,0c2.77,0,5.57.07,8.28.13,8.06.18,16.4.37,24.55-1.11,2.47-.49,5-1.07,7.45-1.62,7.43-1.67,15.11-3.4,22.72-3.4a11.89,11.89,0,0,1,6.42,1.83,9.79,9.79,0,0,1-.42-2.83,7.43,7.43,0,0,1,.22-1.84,27.7,27.7,0,0,0-2.9.79l-.11,0c-18.79,3.92-37.16,3.56-54.91,3.22-5-.1-10.2-.2-15.3-.2-3.86,0-10,2.18-10,8A21.46,21.46,0,0,0,698.61,273.71Zm85.06-16.58a4.93,4.93,0,0,0-.49,2.23,7.19,7.19,0,0,0,2.43,5.52,7.73,7.73,0,0,0,6.26,1.52c2-1,3.27-1.79,3.31-3.92a6.54,6.54,0,0,0-3.29-4.32C789.66,256.93,786.63,256.76,783.67,257.13Zm2.69-2.18a13.57,13.57,0,0,1,6.5,1.45,8.57,8.57,0,0,1,4.17,5.26l0-.09a7.47,7.47,0,0,0-1.63-6.57,8.69,8.69,0,0,0-7.71-1.75,18.32,18.32,0,0,1-1.54,1.28l-.55.43Zm-90.5-46.1a1.65,1.65,0,0,1,1,.35c1.21.94,1,3.09-3.7,11.32L692,222.64c-4.2,7.61-8.55,15.47-13.11,22.92a131.44,131.44,0,0,1-8.54,12.12l.67-.46a43.69,43.69,0,0,0,5.9-4.43c3-2.87,4.92-6.38,6.92-10.1,2.79-5.2,5.87-10.38,8.85-15.39,2-3.35,4.05-6.81,6-10.23,1.12-2,2.33-3.94,3.5-5.86,3.75-6.12,7.63-12.45,9.12-19.39.36-1.65.85-3.42,2.15-3.67.76-.14,1.46.26,2.08,1.21s.52,3,.23,5c0,.21-.06.4-.08.56a32.45,32.45,0,0,1-3.94,11c-1,1.93-2.21,3.85-3.33,5.7-2.8,4.61-5.7,9.39-6.86,14.72-.39,1.77-.6,3.62-.81,5.4a41.49,41.49,0,0,1-1.4,7.69c1.45-3.08,3-6.1,4.44-9.06,4.46-8.92,9.07-18.14,11.44-28.23a88.3,88.3,0,0,0-.07-28.66c-.25-1.63-.39-3.32-.55-5.1-.47-5.49-1-11.16-4.65-14.94-5,1.89-9.91,4.18-14.7,6.4-3.67,1.71-7.46,3.47-11.24,5-12.72,5.26-23.23,8.59-33.07,10.49-8.11,1.56-20,2.87-29.87-3.78-1.16-.78-4.17-3.37-4.15-5.9a3,3,0,0,1,.67-1.88l-1.33.11a69.15,69.15,0,0,1-27.88-3.52c.83.62,1.63,1.27,2.4,1.89s1.48,1.2,2.2,1.74a44.37,44.37,0,0,0,10.82,6c15.78,6.16,36.71,13,58.68,11.54,1-.07,2.14-.18,3.35-.3,7.64-.74,18.09-1.75,22.68,4.68s1.15,14.81-2.52,20.75C679.59,217,670.63,225,662,232.68c-4.89,4.36-10,8.87-14.49,13.75l-.87.94c-2.34,2.53-4.63,5-7.05,7.32,3.51-2.26,7.06-4.48,10.65-6.59A166.94,166.94,0,0,0,673,232.42a80.56,80.56,0,0,0,10.05-10c1.07-1.29,2.09-2.69,3.08-4a59.68,59.68,0,0,1,4.94-6.13l.2-.21C692.4,210.86,694.29,208.85,695.86,208.85Zm-75.5-44.37a1.41,1.41,0,0,0-.81.21,1.11,1.11,0,0,0-.64,1c0,1.32,1.89,3.3,3.26,4.23,9.24,6.24,20.62,5,28.38,3.47,9.71-1.87,20.1-5.16,32.69-10.37,2.1-.87,4.23-1.81,6.33-2.76a4,4,0,0,1-.78-.17,2.67,2.67,0,0,1-1.76-1.79s0-.1,0-.14c-3.06,1.17-6.1,2.44-9.07,3.68a166.82,166.82,0,0,1-18,6.7l-.71.2a55.52,55.52,0,0,1-18.38,2.14,37.32,37.32,0,0,1-9-1.69,36.53,36.53,0,0,1-5-2.16c-1.1-.54-2.24-1.11-3.39-1.57l-.54-.22a8.92,8.92,0,0,0-2.27-.73Zm2.52-1.43.81.33.51.21c1.23.5,2.4,1.08,3.53,1.64A30.75,30.75,0,0,0,641,168.88a53.67,53.67,0,0,0,17.71-2.08l.7-.19A165.38,165.38,0,0,0,677.15,160c3.31-1.39,6.71-2.81,10.15-4.1a6.7,6.7,0,0,1,.45-.81c3.9-6,11.91-6.93,17.59-5.87a12.48,12.48,0,0,1,5,1.94c1.31-.48,2.62-.93,3.94-1.34,3.34-1.05,6.52-3.59,9.33-5.83l1-.84a59.37,59.37,0,0,0,9.73-9.4c3.92-4.89,6.85-8.81,8.78-14.54v-4.73a4,4,0,0,0-2-2.79,9,9,0,0,0-6.69-.37c-4.89,2.1-6.64,7.11-8.5,12.41-.58,1.66-1.18,3.38-1.9,5-5.66,11.33-18.25,14.73-27.82,15.6-12.74,1-25.9,2-37.78,5.95-3,1.12-5.91,2.36-9.38,3.87-2.14.92-4.28,1.84-6.41,2.71a5.68,5.68,0,0,1-2.71,4.79,11.07,11.07,0,0,1-6.17,1.35,44.26,44.26,0,0,1-7.47-.7Q624.64,162.73,622.88,163.05Zm2.88-87a62.64,62.64,0,0,0-35,10.53,58.1,58.1,0,0,0-17.36,18.49,54,54,0,0,0-6,14.88c-2.39,10-1.16,19.52,3.38,26.06,2.95,4.27,7.63,7.86,13.9,10.7a65.51,65.51,0,0,0,31.52,5.19c1.83-.13,3.63-.35,5.42-.64a109.69,109.69,0,0,1-14.18-5.07c-1.21-.51-2.4-1-3.57-1.57l-1.47-.2a25.87,25.87,0,0,1-13.39-5.95c-4.25-3.89-7-9.84-8.37-18.2-1.43-8.6-1.18-16.47.75-23.39,1.46-5.27,3.81-9.27,7-11.89,4-3.35,9.5-4.19,13.59-2.1a6.59,6.59,0,0,1,3.74,4.65,86.65,86.65,0,0,1,13.87-6.88c1.6-.64,3.2-1.26,4.81-1.88a24.55,24.55,0,0,0,5.44-2.57,9.21,9.21,0,0,0,1.7-1.5c-.21,0-.42,0-.63-.07a6.91,6.91,0,0,1-4.69-2.94,4.18,4.18,0,0,1-.55-3.51,4,4,0,0,1,1.58-2.13Zm5.72,84.9c.79.05,1.57.08,2.36.08a9.47,9.47,0,0,0,5.1-1,4,4,0,0,0,1.68-2.26C637.59,158.92,634.56,160,631.48,161Zm-21.81-6a84.83,84.83,0,0,0,16.63,5.3,103.9,103.9,0,0,0,14-4.57c-.82-1.11-2.66-1.59-5.6-1.49l-17.92.62C614.41,154.93,612,155,609.67,155Zm79.25,2.44a.64.64,0,0,0,0,.28.66.66,0,0,0,.48.48,3.46,3.46,0,0,0,2.68-.6c.37-.27.47-.42.49-.5s0-.12-.05-.14a.83.83,0,0,0-.48-.34,3.57,3.57,0,0,0-1.79.33Zm2.84-2.85a2.94,2.94,0,0,1,.72.08,2.8,2.8,0,0,1,1.77,1.23,2.19,2.19,0,0,1,.29,1.68,2.09,2.09,0,0,1-.17.46h0c4.41-2.05,8.93-4.15,13.55-6a12.84,12.84,0,0,0-3-.88c-4.89-.92-11-.1-14.43,3.58A4.63,4.63,0,0,1,691.76,154.58ZM597,93.77a11.87,11.87,0,0,0-7.44,2.76c-2.84,2.35-5,6-6.33,10.89-1.84,6.63-2.08,14.21-.7,22.52,1.31,7.9,3.85,13.48,7.75,17.05a21.12,21.12,0,0,0,7.82,4.37,20.34,20.34,0,0,1-3.31-3c-3.61-4.1-4.33-8.89-4.42-13.55-2.54-2.68-2.51-8.52-2.33-11.34a28.35,28.35,0,0,1,3.26-11.3,38.07,38.07,0,0,1,12.32-13.33,4.33,4.33,0,0,0,0-.95A4.57,4.57,0,0,0,601,94.67,8.66,8.66,0,0,0,597,93.77Zm-4.64,40.09a2.4,2.4,0,0,0,.87.32,1.7,1.7,0,0,0,1.45-.81,7,7,0,0,0,.87-2.3L602.12,105c-3.19,2.8-4.7,7.17-6,11.43-.27.9-.55,1.8-.82,2.7-1.47,4.73-3,9.61-3,14.58ZM600.23,104a33.09,33.09,0,0,0-7.17,9.09,26.35,26.35,0,0,0-3,10.51,23.64,23.64,0,0,0,.47,7.17,63.3,63.3,0,0,1,2.92-12.26c.27-.9.55-1.79.81-2.68C595.52,111.55,597,107.14,600.23,104Zm1.46-1.25.74,1c.09-.32.2-.65.32-1s.25-.76.34-1.12q-.81.61-1.59,1.26Zm28.24-25.56a3,3,0,0,0-1.14.22,2,2,0,0,0-1,3.2,4.88,4.88,0,0,0,3.29,2,6,6,0,0,0,1.58,0,5.3,5.3,0,0,0,.24-.84,4.1,4.1,0,0,0-1.71-4.35A2.66,2.66,0,0,0,629.93,77.21Zm3.52-.41a6.32,6.32,0,0,1,1.5,5,2.88,2.88,0,0,0,1-2.63A3.47,3.47,0,0,0,633.45,76.8Z"/><path d="M532.38,314.5c-2.84,0-5.7-.05-8.53-.17-17.05-.78-34.21-4.23-48.32-9.71-6-2.32-13.75-6.45-19.3-13.39a11.51,11.51,0,0,1-5-3.73,24.13,24.13,0,0,1-10.39-8.23,23.33,23.33,0,0,1-1.29-2.09c-1.36-2.36-2.9-5-5.1-4.77-1.49.18-3.07,1.64-4.34,2.82l-.86.79c-9.05,8-17.66,10.84-25.61,8.55a9.36,9.36,0,0,1-4.82-3.1c-1.2-.06-2.42-.11-3.61-.11v-2c.83,0,1.67,0,2.51.06-1.23-3.65.91-7.39,2.34-9.34,8.5-11.62,26.3-18,40.53-14.56A27.34,27.34,0,0,1,455,264.46a15.08,15.08,0,0,1,3.24-3.08c3.19-2.22,7.14-2.94,10.9-3.49,19.37-2.82,39.26-3,58.49-3.22,6.87-.08,14-.15,20.94-.34l.81,0a75.93,75.93,0,0,1,14.2.48,32.23,32.23,0,0,1,9.5,2.67c-1.19-2.32-2.44-4.61-3.68-6.87l-.13-.25,1.75-1,.14.25c1.92,3.53,3.88,7.11,5.62,10.79.14.2.28.39.41.6a5.35,5.35,0,0,1,.71,1.88A58,58,0,0,1,582,275.63a106.27,106.27,0,0,1,1.4,18.12c0,1.11.05,2.25.1,3.39.15,3.61.3,7.35-.68,10.88-.46,1.68-1.62,3.92-3.35,4.69a3.26,3.26,0,0,1-2.84-.1,7.72,7.72,0,0,1-3.11-3.42,10.15,10.15,0,0,1-2.7,2.91c-4,2.65-9.4,2.4-14.19,2.18-1.39-.06-2.71-.13-3.92-.11-2.92,0-5.84.09-8.77.16C540.15,314.41,536.27,314.5,532.38,314.5Zm-72.77-22.43a46.13,46.13,0,0,0,16.64,10.68c13.92,5.41,30.85,8.81,47.69,9.58,6.64.3,13.42.15,20,0,2.93-.07,5.86-.13,8.79-.16,1.28,0,2.61.05,4,.11,4.49.21,9.57.44,13-1.84a10.47,10.47,0,0,0,2.79-3.4c0-.14-.11-.27-.17-.4l0-.11c-3.79-8.91-3.93-18.66-3.73-28.69,0-1.95.08-3.68.15-5.35-1.09.24-2.2.42-3.26.55-.32,0-.64.08-1,.12a79.94,79.94,0,0,1-10.24.25c-7.48-.14-15.12.07-22.49.24l-1.9,0c-3,.07-6,.12-9.05.17-10.14.16-20.63.34-30.88,1.26-1.18.11-2.37.18-3.57.26-3.82.24-7.77.48-11.28,1.81l-.58.22c-1,.38-2,.77-3.06,1.08a16,16,0,0,0-1.52,1.94,8,8,0,0,1,.07,7.36c-1.37,2.46-4.3,4.08-7.85,4.33A14.22,14.22,0,0,1,459.61,292.07Zm115.15,15.1c.68,1.46,1.58,3.05,2.77,3.65a1.26,1.26,0,0,0,1.13.06c1-.43,1.87-2,2.25-3.4.89-3.22.74-6.8.6-10.26q-.06-1.39-.09-2.76a41,41,0,0,1-5.61,11C575.46,306,575.12,306.57,574.76,307.17Zm-4-35.24c-.09,1.85-.14,3.77-.18,5.95-.19,9.49-.07,18.71,3.23,27,.12-.2.25-.39.38-.57a34.82,34.82,0,0,0,6.65-17.09,29.6,29.6,0,0,0-1.71-12.11l-.3-.85a33,33,0,0,0-2.08-5.11c-.16-.29-.31-.57-.47-.84a9.53,9.53,0,0,1-.73.81A12.28,12.28,0,0,1,570.75,271.93ZM457.42,289.51a11.85,11.85,0,0,0,4.58.62c2.87-.21,5.2-1.45,6.24-3.31a5.53,5.53,0,0,0,.36-4.33c-1.37,2.14-2.88,4.26-5.55,5.3a14.76,14.76,0,0,1-6.18,1Zm-2-2.88a13.19,13.19,0,0,0,6.87-.7c2.3-.9,3.59-2.93,4.95-5.08l.34-.54a10.7,10.7,0,0,0-.95-1.29,7.5,7.5,0,0,1-4.15-1.73,6.33,6.33,0,0,1-1.38-1.78,7.88,7.88,0,0,0-2-.28l-.15,0a7.28,7.28,0,0,1-1.3.14,5.63,5.63,0,0,0-3.09,1.79c-2.53,3.05-.08,7.79.73,9.18Zm-2.95-.77.33.12c-1.23-2.59-2.5-6.82.2-10.07a7,7,0,0,1,1.26-1.17,16.07,16.07,0,0,1-1.69-.78c-.09.28-.18.57-.26.85-1,3.21-1.75,6.91-.4,10A6.88,6.88,0,0,0,452.5,285.86Zm-17.76-15.47c3.16,0,5.09,3.33,6.51,5.79.42.73.82,1.41,1.19,1.93a22.6,22.6,0,0,0,7.29,6.5c-1.07-3.43-.27-7.14.69-10.37.13-.43.27-.87.41-1.32l-1.5-1-.6-.4A31.06,31.06,0,0,0,437,266.62a16,16,0,0,0-14.36,4.83c-.7.71-1.37,1.45-2,2.18-2.57,2.83-5.23,5.75-9.36,7.05a27.8,27.8,0,0,1-9.33.93,8.26,8.26,0,0,0,2.29,1c7.24,2.09,15.23-.65,23.73-8.13l.82-.75c1.48-1.38,3.32-3.09,5.47-3.35Zm-34.84,9.13c3.61.18,7.31.31,10.72-.75,3.6-1.13,6-3.73,8.46-6.49.68-.74,1.36-1.49,2.08-2.23a18.21,18.21,0,0,1,16.08-5.41c5.24.79,10.14,3.61,12.59,5.23l.61.4,1.07.71a27,27,0,0,1,2.33-4.82,25.07,25.07,0,0,0-13.75-8.69c-13.28-3.24-30.53,3-38.45,13.79-1.23,1.69-3.13,4.95-1.94,7.83C399.76,279.24,399.83,279.38,399.9,279.52Zm67.69-2.44a9.94,9.94,0,0,0,1.2-.06,14,14,0,0,0,1.59-.31l.36-.34c5.86-5.26,14-5.79,21.21-6.26l.21,0c10.31-.67,20.76-.88,31.08-.6l5.69.17c8,.24,16.35.5,24.51.12a64.29,64.29,0,0,0,10.69-1.09c2.36-.53,4.65-2.49,4.28-4.55a3.94,3.94,0,0,0-2.58-2.71,13.05,13.05,0,0,0-4.51-.59c-7.15-.07-14.42.23-21.45.52-6.8.29-13.84.58-20.77.53-4.76,0-9.59-.22-14.26-.41-5.48-.22-11.14-.43-16.72-.41-5.89,0-12.12.36-17.87,2.48-3.38,1.25-5.65,2.86-6.93,4.94a6.72,6.72,0,0,0-.71,5.39,13.67,13.67,0,0,1,3.34,1.78A12.94,12.94,0,0,1,467.59,277.08Zm46.71-5.71c-7.34,0-14.71.24-22,.72h-.21c-4.42.29-9.23.61-13.51,2.08a62,62,0,0,1,7.66-.8c1.18-.07,2.36-.15,3.52-.25,10.32-.93,20.85-1.11,31-1.27,3-.05,6-.1,9-.17H530l-1.1,0-5.68-.16Q518.75,271.37,514.3,271.37Zm-61,.66a9.19,9.19,0,0,0,4.2,1.36h.08a19.61,19.61,0,0,0-2.42-5.44A27.15,27.15,0,0,0,453.25,272Zm6.31,1.22a8.27,8.27,0,0,1,.87.08,8.92,8.92,0,0,1,1.18-5.89c1.53-2.47,4.13-4.36,7.95-5.77,6-2.22,12.48-2.56,18.55-2.6,5.6,0,11.3.19,16.81.41,4.65.19,9.46.38,14.19.41,6.89,0,13.9-.24,20.68-.53,7.05-.29,14.35-.59,21.55-.52a14.59,14.59,0,0,1,5.21.72,5.88,5.88,0,0,1,3.83,4.23,4.87,4.87,0,0,1,0,1.37,3.82,3.82,0,0,1,2.29-1.17,4.43,4.43,0,0,1,3.17.85,3.9,3.9,0,0,0,.12-1.4c-.29-.65-.59-1.31-.9-2-2.64-3.26-9-4.27-11.79-4.72a75.17,75.17,0,0,0-13.83-.45l-.82,0c-7,.19-14.09.26-21,.34-19.17.2-39,.4-58.22,3.2-3.68.53-7.21,1.18-10.05,3.15a13.35,13.35,0,0,0-3.13,3.1A21.55,21.55,0,0,1,459.56,273.25ZM569.08,268a8.64,8.64,0,0,1-4.52,2.61,42.18,42.18,0,0,1-5.6.81,52.36,52.36,0,0,0,5.32-.28l.92-.11a29.18,29.18,0,0,0,3.63-.66l0-.49A16,16,0,0,1,569.08,268Zm4.16-2.08-.26,0a1.88,1.88,0,0,0-1.26.75,5.75,5.75,0,0,0-.84,3,9.67,9.67,0,0,0,3.26-2,7.12,7.12,0,0,0,.86-1,2.81,2.81,0,0,0-1.76-.75Z"/><path d="M440.37,309.84a69.48,69.48,0,0,1-12.79-1.34l-2.31-.43a80.61,80.61,0,0,1-9.25-2c-3.13-.93-6.49-2.18-8.88-4.37-2-.53-4.45-2-4.47-4.55a3.73,3.73,0,0,1,1.51-3.17,7.25,7.25,0,0,1,.31-1.38l1.53.48a16.59,16.59,0,0,1,4-.59,31.79,31.79,0,0,1,15.08,3.14c1.19.55,2.36,1.15,3.51,1.77h.22c5.3-1.06,9-3.07,14-6,5.44-3.2,11.67-3.56,18.1-3.66l.94,0c1.23,0,2.48-.06,3.73,0a12.24,12.24,0,0,1-1.18-1.47,4.25,4.25,0,0,1-.89-2.67,3,3,0,0,1,1.17-2.11,5,5,0,0,1,3.7-.9,7.53,7.53,0,0,1,4.26,2.19,13.64,13.64,0,0,1,1.7,2.32,15.71,15.71,0,0,0,1.22,1.74c1.78,2.06,4.73,2.92,7.6,3.61,9.49,2.31,19.25,4.05,28.68,5.73a123.64,123.64,0,0,0,13.62,1.92l.55,0c3.22.12,6.34.45,7.37,2l.09.15q3.33-.22,6.51-.6a100.83,100.83,0,0,1,11.86-.5c2.63,0,5.35,0,8-.17a86.69,86.69,0,0,0,9.15-1.2,87.67,87.67,0,0,1,8.87-1.19l.13,2c-2.9.2-5.84.69-8.67,1.17A86.39,86.39,0,0,1,560,301c-2.72.16-5.47.17-8.13.18a100.63,100.63,0,0,0-11.62.48c-2.19.27-4.43.47-6.72.62a4.13,4.13,0,0,1-2.5,1.77l-.13,0c-3.64,1.32-7.57,1.38-11.37,1.44h-.64a129.55,129.55,0,0,1-18.23-.86c-5.25-.65-11.39-1.69-17.05-4.49a33.18,33.18,0,0,1-6.57-4.66c-1.32-1.11-2.6-2.18-4-3.11a29.19,29.19,0,0,1-4.33-2.17,21.42,21.42,0,0,0-6.82-.55l-.95,0c-6.4.1-12.1.43-17.13,3.38-4.36,2.56-8,4.55-12.52,5.76,2.31,1.28,4.7,2.6,7.15,3.66,4.83,2.06,10.1,2.54,15.39,2.61a30.35,30.35,0,0,0,8.42-6,5.72,5.72,0,0,1,3.71-1.71,3.66,3.66,0,0,1,3.11,2.26,4.49,4.49,0,0,1-.18,3.65,6.63,6.63,0,0,1-4.14,3.26,17.64,17.64,0,0,1-4.82.53h-.29c-1.78,0-3.57.06-5.37,0a28.6,28.6,0,0,1-8,2.32A43.43,43.43,0,0,1,440.37,309.84ZM411,302a29,29,0,0,0,5.57,2.18,83.33,83.33,0,0,0,9,2l2.32.42c7.19,1.35,12.93,1.65,18.07.94,1-.14,1.91-.32,2.84-.55a35.44,35.44,0,0,1-11.19-2.57,78.65,78.65,0,0,1-7.38-3.77c-.74-.4-1.48-.82-2.23-1.22a37.39,37.39,0,0,0-8.85,1.28A45.24,45.24,0,0,1,411,302Zm54.8-2.57a4,4,0,0,0-2.22,1.19,33,33,0,0,1-5.61,4.54l1.63,0h.29a16,16,0,0,0,4.28-.45,4.62,4.62,0,0,0,2.91-2.21,2.5,2.5,0,0,0,.13-2,1.65,1.65,0,0,0-1.35-1ZM479.49,295a25.67,25.67,0,0,0,5,3.41c5.4,2.66,11.33,3.66,16.42,4.29a125.58,125.58,0,0,0,18,.85h.64a36.15,36.15,0,0,0,9.9-1c-3.14.11-6.39.11-9.79,0l-4.05-.09c-7.94-.17-16.16-.34-23.79-2.46a63.83,63.83,0,0,1-9.2-3.59Zm-5.5-4.34c.87.36,1.76.7,2.64,1l2,.78c1.6.64,3.19,1.36,4.73,2.06a63.55,63.55,0,0,0,8.91,3.49c7.4,2.05,15.48,2.21,23.3,2.38l4.06.09c3.55.11,6.93.09,10.19,0a28.49,28.49,0,0,0-3.89-.36l-.6,0a125.6,125.6,0,0,1-13.84-1.95c-9.46-1.69-19.25-3.43-28.8-5.75-3.19-.78-6.48-1.74-8.64-4.25a15.9,15.9,0,0,1-1.4-2,11.81,11.81,0,0,0-1.45-2,5.54,5.54,0,0,0-3.11-1.6,3,3,0,0,0-2.17.49,1,1,0,0,0-.41.7,2.32,2.32,0,0,0,.54,1.39,12.37,12.37,0,0,0,3.55,3.32,17,17,0,0,1,2.06.86A19.9,19.9,0,0,1,474,290.65Zm-65.86,9.19.26,0c3.42.38,6.8-.38,10.38-1.18,1.9-.43,3.85-.86,5.81-1.12l-.34-.15a29.62,29.62,0,0,0-14.13-3,13,13,0,0,0-4,.68,6.43,6.43,0,0,0,.89,3.23A8,8,0,0,0,408.13,299.84Z"/><path class="cls-1" d="M274.49,243.45a10.93,10.93,0,0,1-3.94-.64,8.56,8.56,0,0,1-1-.46,5.93,5.93,0,0,1-.68-.31,7.25,7.25,0,0,1-1.59-1c-.46-.39-.9-.8-1.34-1.21-.24-.22-.48-.44-.72-.68a30.49,30.49,0,0,1-3.86-3.69c-.62-.73-1.18-1.51-1.72-2.26l-.52-.72H259a2.23,2.23,0,0,1-1.73-.88q-1.81-2-3.59-4.08l.56-.49a1.46,1.46,0,0,1-.17-.38c-.46-1.46.86-2.59,1.29-3a137.12,137.12,0,0,0,12.56-12.26,5.19,5.19,0,0,1,2.21-1.68,5.12,5.12,0,0,1,1.72-.19l4.28,0c1.2,0,2.4,0,3.6,0l2.68,0-2.05,1.72c-1.89,1.58-3.7,3.4-5.46,5.15-.82.83-1.64,1.65-2.48,2.45-2.2,2.13-4.27,4.21-6.15,6.2-.82.87-1.63,1.8-2.41,2.7-1,1.15-2,2.33-3.13,3.44.18.23.34.47.51.7l.29.4c1-.92,1.93-1.94,2.84-2.93s2.07-2.24,3.21-3.28a9,9,0,0,1,2-1.47c2-1,4.14-.81,6.22-.6a12.49,12.49,0,0,0,4.37-.06l4.36-1.18-3.46,2.91a83.6,83.6,0,0,0-8.09,7.44c-.34.36-.37.5-.37.52l.25.23,6.47,6.09c.75-.16,1.48-.33,2.21-.52.42-.11.83-.24,1.24-.37a21.48,21.48,0,0,1,2.63-.67l.68-.11a13.12,13.12,0,0,0,3.36-.81l.8,1.84a15.38,15.38,0,0,1-3.85,1l-.67.11a17.07,17.07,0,0,0-2.36.61l-1.32.38c-.31.09-.63.17-.95.24l1.39,1.32-2.44.05c-.82,0-1.68.09-2.51.16C276.53,243.36,275.51,243.45,274.49,243.45Zm-4.13-2.93a4.91,4.91,0,0,0,1.9.35,35.52,35.52,0,0,0,4.61-.36l-5.38-5.06a2.51,2.51,0,0,1-.83-1.23,2.58,2.58,0,0,1,.84-2.32,66.73,66.73,0,0,1,5.92-5.62c-.61,0-1.22-.09-1.82-.15-1.87-.19-3.65-.37-5.11.39a7.73,7.73,0,0,0-1.57,1.17c-1.07,1-2.09,2.09-3.08,3.16s-1.82,2-2.81,2.91a24.16,24.16,0,0,0,3.49,3.88l1,.86A18.73,18.73,0,0,0,270.36,240.52Zm1.24-29a2.81,2.81,0,0,0-.85.09,3.62,3.62,0,0,0-1.35,1.12,138.52,138.52,0,0,1-12.74,12.44c-.69.59-.69.83-.69.83a1.62,1.62,0,0,0,.19.26c.47.55,1,1,1.55,1.58s.93.89,1.36,1.37q.23.24.42.48c1-1,1.94-2.11,2.86-3.17.8-.91,1.62-1.85,2.47-2.75,1.89-2,4-4.12,6.22-6.27.82-.79,1.63-1.61,2.45-2.42,1.17-1.17,2.37-2.37,3.6-3.52h-1l-4.28,0Z"/><path class="cls-1" d="M298.44,223.52l-.65-.09-.53-.06c-2.55-.27-5.08-.68-5.62-2.34a21,21,0,0,0-2.18.87l-.88.38-.79-1.84.86-.37a15.56,15.56,0,0,1,3.55-1.23,5.65,5.65,0,0,1,.64-.68c1.32-1.19,3.83-1.08,5.67-1l.94,0h.25c3.53,0,8.94,0,11.27-2.45a4.93,4.93,0,0,0,1.22-3.84l2-.1a6.91,6.91,0,0,1-1.76,5.32c-2.92,3.07-8.6,3.06-12.72,3.07h-.25c-.28,0-.63,0-1,0l-.81,0a2.65,2.65,0,0,1,1.45,1.14,2.56,2.56,0,0,1-.28,2.69Zm-4.51-2.82a13.3,13.3,0,0,0,3.38.66.24.24,0,0,0,0-.11c-.09-.16-.59-.54-3.29-.55Z"/><path class="cls-1" d="M144.28,240.06a4.68,4.68,0,0,1-.64,0,6.6,6.6,0,0,1-1.64-.46,14.47,14.47,0,0,1-2.65-1.57l-.86-.59a20.55,20.55,0,0,0-2.45-1.35c-.43-.2-.86-.38-1.3-.55a2.73,2.73,0,0,1-1.53-1.23,3,3,0,0,1-.3-1.37c-.3-6.21-.37-12.51-.19-18.73a7.44,7.44,0,0,1,.13-1.33,1.65,1.65,0,0,1,0-.5,1.23,1.23,0,0,1,.54-.9,1.48,1.48,0,0,1,.33-.17,6.72,6.72,0,0,1,1.24-1,29.43,29.43,0,0,1,3.06-1.7,5.25,5.25,0,0,1,2.33-.67h0a5.5,5.5,0,0,1,2.78,1l.45.28.2-.14a6.05,6.05,0,0,0,.48.57c.64.4,1.28.82,1.9,1.24a1.52,1.52,0,0,1,.77,1.32,1.33,1.33,0,0,1-.18.6,7.16,7.16,0,0,1,.64,2.13,27.81,27.81,0,0,1,.17,3.12l.12,5.94c0,.14,0,.29,0,.45a14.5,14.5,0,0,1,2.72-.92,72.1,72.1,0,0,1,.14-7.64l-1.1-.39,1.18-.73,0-.45.42.16.14-.08a7,7,0,0,1,1.26-.59l.53-.22a9.49,9.49,0,0,0,1.07-.58,6,6,0,0,1,3.15-1.11h0a6.57,6.57,0,0,1,3.29,1.21c.18.11.35.22.53.31.63.37,1.24.74,1.81,1.13a4.53,4.53,0,0,1,.64-.13,1.42,1.42,0,0,1,1.5.56,1.47,1.47,0,0,1,.23.84c0,.17,0,.35,0,.52l.3.27a17.8,17.8,0,0,1,1.36,1.45c1,1.16,2.26,2.6,3.41,2.67l-.12,2c-2-.13-3.55-1.92-4.8-3.36a1.46,1.46,0,0,1-.16-.19c0,.26,0,.54,0,.84a8,8,0,0,1-.22,2.72,2.65,2.65,0,0,1-2.15,1.57l-.25.07a5.79,5.79,0,0,0-1.74.82l-.28.23a4.44,4.44,0,0,1-1,.74,1.79,1.79,0,0,1,.16.37,1.35,1.35,0,0,1-.55,1.44c-.08,1.44-.12,2.87-.17,4.33a2.72,2.72,0,0,1-.35,1.43,2.64,2.64,0,0,1-1.11.93c-2.19,1.18-4.46,2.27-6.77,3.24-.74.31-1.49.61-2.24.89l-.85.34A9.23,9.23,0,0,1,144.28,240.06ZM134.7,215c-.15,5.92-.08,11.9.2,17.8a1.81,1.81,0,0,0,.07.52c.05.09.12.17.49.31s1,.39,1.42.6a22.6,22.6,0,0,1,2.7,1.5l.91.61a12.9,12.9,0,0,0,2.29,1.38,4.32,4.32,0,0,0,1.14.32,3.19,3.19,0,0,0,1,0,2,2,0,0,1-.07-.42c0-.28,0-.55,0-.82,0-.46,0-.92-.05-1.38a4.13,4.13,0,0,1,.12-1.59,6.23,6.23,0,0,0-2.9-2.24l-.12,0a3.25,3.25,0,0,1-1.5-.89h0a1.51,1.51,0,0,1-1-.71l-.62-1.07,1.14-.37.06-1.76a61.77,61.77,0,0,0,0-7.2,7.07,7.07,0,0,0-.67-2.86,8.17,8.17,0,0,1-1.11-.07A7.41,7.41,0,0,1,134.7,215Zm12.53,18.87a7.92,7.92,0,0,1,.8,3c.68-.26,1.36-.53,2-.81,2.25-1,4.47-2,6.61-3.16a2,2,0,0,0,.36-.23,1.78,1.78,0,0,0,0-.44c0-1,.07-2,.11-3a63.64,63.64,0,0,1-8.81,4.13A6.31,6.31,0,0,0,147.23,233.87Zm-4.34-4.1a8.14,8.14,0,0,1,3.26,2.42,8,8,0,0,1,1.5-.71,61.45,61.45,0,0,0,9.57-4.6,9.9,9.9,0,0,0-4.29-1.55,11.34,11.34,0,0,0-6,1.78l-.1,0a5.83,5.83,0,0,1-1.28,1Zm-1.56-13.46a10.55,10.55,0,0,1,.62,3.05,65.77,65.77,0,0,1,0,7.43l0,.82c.81-.41,1.61-.87,2.44-1.36l1.12-.64,0,0a3.1,3.1,0,0,0,.19-1.53l-.12-6a26.74,26.74,0,0,0-.15-2.87,5.71,5.71,0,0,0-.24-1,16.48,16.48,0,0,1-2.46,1.54A10.46,10.46,0,0,1,141.33,216.31Zm11.07,6.54,1.74.53.77.23,2.18.82a5.55,5.55,0,0,1,0-.74c0-.11,0-.21,0-.3,0-.95,0-1.9.1-2.84,0-.16,0-.32,0-.5a6,6,0,0,0,.05-.78,5.32,5.32,0,0,1-2.25-1.1l-2.61-1C152.38,219.06,152.35,221,152.4,222.85Zm6.87-4.13a4.81,4.81,0,0,1,0,1.56,2.87,2.87,0,0,0,0,.39c-.06.92-.09,1.83-.1,2.75,0,.12,0,.27,0,.42s0,.2,0,.32l.25-.22a4.14,4.14,0,0,1,.46-.37,7.82,7.82,0,0,1,2.33-1.11l.31-.08a2.11,2.11,0,0,0,.75-.27,7.13,7.13,0,0,0,.11-2c0-.33,0-.65,0-.94,0-.62,0-1.24,0-1.85-.22-.18-.45-.35-.68-.52a14.72,14.72,0,0,0-2,1.14C160.17,218.19,159.73,218.47,159.27,218.72Zm-3.22-2.32,1.59.61.34.14.1-.05c.5-.27,1-.57,1.45-.87s.77-.49,1.17-.72l-.59-.34-.56-.33a4.79,4.79,0,0,0-2.28-.93h0a4.39,4.39,0,0,0-2.13.83c-.3.18-.6.36-.93.53.44.23.85.48,1.24.71C155.61,216.09,155.82,216.24,156.05,216.4Zm-20-4.43,1.11.55a10.73,10.73,0,0,1,3,2,7,7,0,0,0,1.66-.58,13.68,13.68,0,0,0,2.34-1.5,9,9,0,0,0-.86-.92l-.32-.32-.91-.56a3.78,3.78,0,0,0-1.76-.71h0a3.61,3.61,0,0,0-1.46.47A29.48,29.48,0,0,0,136.06,212Z"/><path class="cls-1" d="M124.59,222.86c-10.72-1-20.27-6.56-29.51-11.94-1.93-1.12-3.93-2.28-5.86-3.36-3.92-2.17-8.6-4.41-13.69-4.64a17,17,0,0,0-1.75,0c.35.32.7.65,1,1,1.9,2,4,4.52,3.84,7.08a4.57,4.57,0,0,1-2,3.32c-1.81,1.32-4.62,1.48-7.33.41s-4.67-3.14-5.09-5.39A6,6,0,0,1,65.47,204,8.2,8.2,0,0,1,69,201.77c-7.88-4.86-18.41-5.25-27.88-5.6h-.21c-11.6-.43-23.42,0-34.85.37l-5.95.2-.06-2,6-.2c11.46-.39,23.31-.8,35-.37h.21c9.86.36,21.85.8,30.43,6.95a21.21,21.21,0,0,1,4-.21c5.5.25,10.45,2.61,14.57,4.9,2,1.08,4,2.25,5.89,3.37,9,5.27,18.42,10.72,28.7,11.68ZM71.08,203.25A7.41,7.41,0,0,0,67,205.3a4.09,4.09,0,0,0-.8,3.66c.29,1.58,1.77,3.08,3.85,3.9s4.17.74,5.41-.17a2.58,2.58,0,0,0,1.22-1.86c.16-2-2.34-4.56-3.28-5.52A23.38,23.38,0,0,0,71.08,203.25Z"/><path class="cls-1" d="M125.24,188.23l2.05-.87a2.68,2.68,0,0,1-.92-.32c-7.74.64-15.14-6.58-21.41-12.71-1.56-1.53-3-3-4.44-4.22a8.7,8.7,0,0,0-7-2.42l-.24-2a10.75,10.75,0,0,1,8.66,3c1.4,1.24,2.89,2.7,4.47,4.24,7.31,7.15,15.48,15.14,23.67,11a15.45,15.45,0,0,0,2.34-3.59,8,8,0,0,1-2.14,1.35,8.36,8.36,0,0,1-7.73-.73l-2.93-1.74,2.82-.1a4.41,4.41,0,0,1-.83-2.53,2.69,2.69,0,0,1,2.67-2.73,2.11,2.11,0,0,1,1.66.42,2.45,2.45,0,0,1,.68,1.84c0,.6.08.76.22.83a.47.47,0,0,0,.19.07h0c.2-.08.55-.86.71-1.19s.17-.37.25-.53l1.7-3.35a4.42,4.42,0,0,0-.85-.6l-1.29-.46c-2.56-.93-5.47-2-7.24-.37l-1.16,1L119,171l-2.16,4.07.32-4.7a16.23,16.23,0,0,0,.07-1.73,6.53,6.53,0,0,0-1.14-1.18,5.09,5.09,0,0,1-2-2.93,2.33,2.33,0,0,1,.49-1.82,2.71,2.71,0,0,1,2-1,6.21,6.21,0,0,0,3.14-.71,14,14,0,0,0,1.66-1.43c1.21-1.16,2.58-2.47,4.61-2.62a9.64,9.64,0,0,1,3.62.62l.76.24c.58.16,1.16.34,1.73.52l1.2.37a4.14,4.14,0,0,1,1.49-2.51c.46-.45.94-.92,1-1.32l.14-1.76,1.43,1a9.84,9.84,0,0,1,3.66,4.24l2.14,1.1c2.37,1.22,4,3.57,4.82,6.79,1.17,4.82.14,11.13-2.39,14.68l-1.94,2.71.12-3.18a35.51,35.51,0,0,1-2.43,2.84c-.43.47-.85.92-1.22,1.35l-1.79,2.1,0-3.3v-.13c-1.61,2.26-3.63,4.08-6.72,4.35Zm6-2.68-.26.25.07,0a2.7,2.7,0,0,0,.9-.64ZM135,179.9v2.32a6.32,6.32,0,0,1-.37,2.09,16.54,16.54,0,0,0,3.47-4.59l1.25-2.18L140,180a9,9,0,0,1,.21,1.46c1.6-1.75,3.23-3.69,3.43-5.76l2,.06v0a18.88,18.88,0,0,0,.28-9,9.9,9.9,0,0,0-1.77-3.81,4.43,4.43,0,0,1-2.8,4.15c-2,.95-5.06,1.07-6.95-.54l-2.52-2.14,3.29.39c1.14.15,3.16-1.36,3.7-2.51.94-2,.34-3.91-1.79-5.73a8.69,8.69,0,0,1-1,1.09c-1.06,1-1.11,1.22-.53,1.9l2,2.3-2.95-.68c-1.09-.25-2.15-.58-3.17-.9-.56-.18-1.12-.35-1.69-.51l-.81-.25A8,8,0,0,0,126,159c-1.31.1-2.32,1.06-3.38,2.08a14.62,14.62,0,0,1-1.94,1.64,7.77,7.77,0,0,1-4,1,.83.83,0,0,0-.59.24.31.31,0,0,0-.06.27c.09.58.71,1.14,1.38,1.73a10.63,10.63,0,0,1,1.22,1.2l.62-1.33.74,2.42c2.53-1.38,5.66-.24,8.24.7.45.17.89.33,1.31.47l.13.05a7.53,7.53,0,0,1,3.05,3,5.71,5.71,0,0,1,.72,2L134,172l1.27,2.43c.69,1.33.27,3.65-.71,6Zm-9.48.15a6,6,0,0,0,2.56.13l-.18-1.46-.31.14a2.24,2.24,0,0,1-1.77-.19,2.66,2.66,0,0,1-1.28-2.48c0-.13,0-.29,0-.41h-.13c-.74.07-.85.41-.86.77a2.72,2.72,0,0,0,2.08,2.48Zm4.94-2.5c-.25,0-.43.15-.77.8l-.89,1.67c.21-.07.41-.14.6-.22a6.4,6.4,0,0,0,2.69-2.24,2.55,2.55,0,0,1-1.34,0A1.81,1.81,0,0,0,130.5,177.55Zm-.05-2a4.17,4.17,0,0,1,.71.07l.23,0a3.07,3.07,0,0,0-.45-2.18,6.49,6.49,0,0,0-.72-1l-.37,3.16A2.46,2.46,0,0,1,130.45,175.55Zm10.77-15.8a6,6,0,0,1-.58,3.39,7.2,7.2,0,0,1-2.46,2.64,5.82,5.82,0,0,0,2.28-.51c1.29-.61,2.32-1.58,1.15-4.53Z"/><path class="cls-1" d="M119.34,160.37l-.19-.12a1.32,1.32,0,0,1-.51-1.17,4,4,0,0,1,.42-1.63,1.63,1.63,0,0,0,.14-.34,2.81,2.81,0,0,0,0-.65.64.64,0,0,0,.33.3l.69-1.88.15.06a2.28,2.28,0,0,1,1.38,2.21,2.07,2.07,0,0,1-.51,1.53,3.46,3.46,0,0,1-.4.35l-.17.15v0l-.76.19Z"/><path class="cls-1" d="M103.2,179.09c-2.06,0-3.72-1.49-5.08-2.72-.5-.44-1-.86-1.41-1.18-4-2.88-7.92-4.57-12.67-6.5-7.23-2.92-14.72-5.46-22-7.91-4-1.34-8-2.72-12-4.16-13-4.63-24.69-12.5-34.45-19.59l-1-.78c-8.44-6.54-10.82-6.8-11.49-6.38L2,128.19c2.62-1.67,8.18,2.12,13.8,6.47.43.34.76.6,1,.75,9.64,7,21.22,14.78,34,19.33,4,1.43,8.06,2.81,12,4.14,7.27,2.47,14.8,5,22.08,8,4.88,2,8.94,3.72,13.1,6.73a18.82,18.82,0,0,1,1.56,1.32c1.34,1.2,2.74,2.45,4.21,2.16l.38,2A4,4,0,0,1,103.2,179.09Z"/><path class="cls-1" d="M59.93,263.57c-4.88,0-11.8-5.75-13.42-7.57L48,254.67c2.38,2.67,10.22,8.21,13.19,6.64a2.27,2.27,0,0,0,.48-.34,10.92,10.92,0,0,1-4.08-3c-1.31-1.69-1.22-3.48.24-4.79l.39-.35.51.11c2.41.55,5,3.56,5.37,6.2a3.12,3.12,0,0,1,0,.52,2.58,2.58,0,0,0,1.74,0c.48-.32.5-1.64.07-3.94l-.08-.42c-.46-2.57-1-3.45-3.61-4.28l.61-1.91c3.55,1.13,4.43,2.78,5,5.84l.07.39c.32,1.67.91,4.77-.92,6a4.38,4.38,0,0,1-3.32.23,3.75,3.75,0,0,1-1.54,1.43A4.63,4.63,0,0,1,59.93,263.57Zm-1.12-8.44c-.23.39-.24.89.36,1.66A8,8,0,0,0,62,258.93,6.84,6.84,0,0,0,58.81,255.13Z"/><path class="cls-1" d="M180,274.38a76.13,76.13,0,0,1-5.61-6.5l-1-1.26-.11.26a24.13,24.13,0,0,1-2.84,4.7c-.83,1.16-2.1,2.92-4.38,2.5l-.66-.13-.14-.65c-.44-2.16,1.42-3.75,3.22-5.28,1.22-1,2.48-2.12,2.76-3.17a5.59,5.59,0,0,0,.12-.68c-.89-1-1.8-2-2.75-2.94,0,0-2.86-3.05-2.48-4.46a1.15,1.15,0,0,1,.86-.84,4,4,0,0,1,4,1.2,9.21,9.21,0,0,1,2.18,4.74q.27-.51.57-1a26.52,26.52,0,0,1,6.77-7c4-3,7.53-4.41,10.73-4.19l-.13,2c-2.71-.19-5.78,1.06-9.39,3.8a24.24,24.24,0,0,0-6.27,6.49,17.2,17.2,0,0,0-1.25,2.59c.58.71,1.16,1.43,1.72,2.14a73.24,73.24,0,0,0,5.46,6.34Zm-11.1-4.09a7.4,7.4,0,0,0-1.47,1.64,5.43,5.43,0,0,0,1.39-1.52Zm-.37-12.42a17.14,17.14,0,0,0,1.47,1.92c.28.27.55.54.82.82a5.92,5.92,0,0,0-1.23-2.08A2.35,2.35,0,0,0,168.51,257.87Z"/><path class="cls-1" d="M157.22,276l-.71-1.4a9.09,9.09,0,0,1-2.57-.28l-.2-.07a8.57,8.57,0,0,1-4.5-5.41,11.72,11.72,0,0,1-.43-3.36l-.37-.93.42-.16a17.75,17.75,0,0,1,2.47-7.55l.15-.19c2.12-2.13,5.69-2.48,8.88-.89a8.34,8.34,0,0,1,4.81,8.74l-.12.85h-.87c-1.23,0-2.47-.06-3.67-.11-3.29-.16-6.43-.31-9.71.62a9.36,9.36,0,0,0,.36,2.42,6.52,6.52,0,0,0,3.37,4.13,7.22,7.22,0,0,0,4-.18c.22-.3.44-.62.65-.94,1-1.53,2.22-3.26,4.79-3.91l2.11-.52-1,1.94a10.42,10.42,0,0,1-5.37,5.12A7.62,7.62,0,0,1,157.22,276ZM153,258a16,16,0,0,0-2,5.78,32.6,32.6,0,0,1,9.68-.52c.87,0,1.77.08,2.65.1a6.48,6.48,0,0,0-3.79-5.79C157.49,256.57,154.73,256.33,153,258Z"/><path class="cls-1" d="M94.09,295.24l-1.39-1.43c2.06-2,4.86-3.05,7.56-4.05a28.77,28.77,0,0,0,5.1-2.27A42.86,42.86,0,0,0,110,284c.62-.51,1.24-1,1.88-1.53a4.39,4.39,0,0,1-.58-1.78,3.41,3.41,0,0,1,.75-2.54c1-1.24,2.66-1.45,4.25-1.48.76,0,1.52,0,2.26,0,3.3,0,6.14,0,9-1.77a32.6,32.6,0,0,0,3.91-3.16,29.32,29.32,0,0,1,4.72-3.7l1,1.72a28.94,28.94,0,0,0-4.4,3.46,32.83,32.83,0,0,1-4.16,3.36,12.58,12.58,0,0,1-5.38,1.91,4.43,4.43,0,0,1,1.18.57,1.94,1.94,0,0,1,.94,1.91c-.3,2.15-4.37,3.63-4.41,3.64a8.54,8.54,0,0,1-7.67-.67c-.65.51-1.31,1.06-2,1.61a44,44,0,0,1-4.86,3.68,29.79,29.79,0,0,1-5.46,2.44C98.33,292.61,95.86,293.53,94.09,295.24ZM115,282.61a7.3,7.3,0,0,0,5.3.07,7.5,7.5,0,0,0,3-1.95.28.28,0,0,0-.08-.06c-1.35-.94-4.12-.3-6.26.75A16,16,0,0,0,115,282.61Zm2.55-4h-1.19c-1.12,0-2.23.13-2.76.77a1.4,1.4,0,0,0-.29,1.06,2.7,2.7,0,0,0,.2.74,19.27,19.27,0,0,1,2.62-1.59,16.83,16.83,0,0,1,2.57-1h-1.15Z"/><path class="cls-1" d="M234.72,284.74l-.07-.08a11.52,11.52,0,0,1-1.7-2.56c-.15-.32-.3-.63-.46-1a11.07,11.07,0,0,1-2,.88,17.4,17.4,0,0,1-3.65.61,22,22,0,0,1-7.27-.5,17.05,17.05,0,0,1-9.52-6,15.62,15.62,0,0,1-3-11.55,17,17,0,0,1,5.72-10.46,17.52,17.52,0,0,1,24.44,1.5,16.35,16.35,0,0,1,4.1,8.66,14.15,14.15,0,0,1-2,9.41,24.72,24.72,0,0,1-1.77,2.34c-.53.64-1,1.25-1.48,1.9l-.69,1-1.5-1.54c-1.21-1.24-2.41-2.48-3.59-3.74l-.49-.5a9.86,9.86,0,0,1-2-2.51,5.43,5.43,0,0,1-.39-1.06c-.93-1-1.82-2.06-2.68-3.12s-1.78-2.18-2.56-3.33l-.48-.76a5.49,5.49,0,0,0-1.28-1.63,1.44,1.44,0,0,0-.66-.23l1.59,2.27a89,89,0,0,0,6,7.83,49,49,0,0,1,5.9,7.74,32.07,32.07,0,0,1,1.51,2.91,9.74,9.74,0,0,0,1.45,2.14l.07.09Zm-10.43-32.9a15.65,15.65,0,0,0-10.18,3.78,15.05,15.05,0,0,0-5,9.21,13.68,13.68,0,0,0,2.61,10.06,15.1,15.1,0,0,0,8.42,5.31,19.93,19.93,0,0,0,6.55.45,15.22,15.22,0,0,0,3.27-.52,10.58,10.58,0,0,0,1.62-.74l0,0a46.92,46.92,0,0,0-5.67-7.42c-1.6-1.82-3.06-3.74-4.49-5.72l-.53,7.24-.4.28c-.62.42-2.55.07-2.57.06-2-.57-1.62-3.57-1.39-5.55,0-.33.08-.61.08-.78,0-1,.08-2,.12-3.07.06-1.22.11-2.44.13-3.67a2.15,2.15,0,0,1,1.25-1.92,3.74,3.74,0,0,1,3.59.32,7.38,7.38,0,0,1,1.81,2.2c.14.24.28.47.43.69.73,1.08,1.59,2.13,2.41,3.15l.79.95a43.57,43.57,0,0,1,.24-6.46l.1-.79.79-.09a12.45,12.45,0,0,1,2.84,0l.69.08.16.68a21.67,21.67,0,0,1,.37,4.92c0,.46,0,.92,0,1.36,0,1.13,0,2.23,0,3.28,0,.14,0,.44-.07.81a13.59,13.59,0,0,0-.12,1.78.75.75,0,0,0-.23-.39l-.56.58c.15.15.3.3.44.46,1.11,1.19,2.25,2.35,3.39,3.52.28-.37.58-.73.86-1.08a20.07,20.07,0,0,0,1.64-2.15,12.11,12.11,0,0,0,1.72-8.06,14.24,14.24,0,0,0-3.6-7.58,15.59,15.59,0,0,0-10.55-5.07Zm-5.83,20,.48,0,.84-11.4a1.65,1.65,0,0,0-.85.09c-.12.06-.12.1-.13.17,0,1.24-.08,2.48-.13,3.72,0,1-.09,2-.12,3a9.6,9.6,0,0,1-.09,1C218.24,270.38,218.24,271.52,218.46,271.87Zm10.84-3.25.94,1c0-.27,0-.49,0-.59,0-1,0-2.1,0-3.2,0-.46,0-.93,0-1.41a25.34,25.34,0,0,0-.18-3.74,8,8,0,0,0-.86,0,41,41,0,0,0-.07,6.74C229.19,267.82,229.23,268.23,229.3,268.62Z"/><path class="cls-1" d="M384.5,351.09c-12.34-11.76-27.86-18.21-42.86-24.44-8.52-3.54-17.33-7.2-25.44-11.79-1-.7-2-1.32-2.93-1.94-3.89-2.51-7.91-5.11-10.84-10l-.09-.18c-.16-.46-.36-1.05-.56-1.72-6.22-1.7-9.31-8.2-12.32-14.53a50.81,50.81,0,0,0-4.89-8.81c-.91-1.05-1.81-2.23-2.68-3.37-2-2.61-3.9-5.08-6.08-6.45l1.07-1.69c2.48,1.56,4.57,4.29,6.59,6.93.86,1.11,1.75,2.27,2.65,3.32a51.7,51.7,0,0,1,5.15,9.21c2.69,5.65,5.26,11.07,9.87,13-.69-2.92-1.08-6.38.09-8.56a4,4,0,0,1,2.49-2,3.68,3.68,0,0,1,3.8.21c2,1.32,3.26,4.51,3,7.6l0,.18-.07.16c-.84,1.78-2.79,4.31-4.16,5l-.2.11h-.22a16.15,16.15,0,0,1-1.85,0c.06.19.13.39.2.58,2.68,4.45,6.31,6.79,10.15,9.27,1,.63,1.95,1.26,2.91,1.93,7.93,4.48,16.68,8.11,25.15,11.63,15.17,6.31,30.86,12.83,43.46,24.84Zm-81.14-51.8a11.29,11.29,0,0,0,2.13.13,12.88,12.88,0,0,0,3.05-3.86c.13-2.27-.78-4.69-2.12-5.58a1.71,1.71,0,0,0-1.87-.06l-.24.09a1.94,1.94,0,0,0-1.32,1C302.07,292.74,302.49,296.08,303.36,299.29Z"/><path class="cls-1" d="M273.6,125.7h-2c0-1.35,0-2.68-.07-4s-.07-2.69-.07-4.05v-3.89c0-.84-.15-1-.15-1a5.26,5.26,0,0,0-1.58-.08l-2.07.08a37.57,37.57,0,0,1-5.09,0c-1.65-.14-3.93-.52-4.69-2.14-.53-1.11-.22-2.46.92-4.13,2-2.88,4.08-5.74,6.25-8.51l1.11-1.28c.94-1.07,2.9-3.32,3.14-3.73a1,1,0,0,0,0,.91l1.73-1h0a1.7,1.7,0,0,1,.16.34,8.11,8.11,0,0,1,.2,3.66,12.59,12.59,0,0,0-.08,1.52c.06,1.43.28,3,1.35,3.91a2,2,0,0,0,.29.1,23.17,23.17,0,0,0,5.79.48A33.59,33.59,0,0,1,283,103a3,3,0,0,1,2.72,1.7c.82,2.11-1.47,5-3.9,7.87-.31.37-.57.67-.74.89l-.5.64c-2.33,3-4.68,6-7,9.12C273.59,124.06,273.6,124.88,273.6,125.7Zm-3.2-15a3.08,3.08,0,0,1,2.3.66,3.35,3.35,0,0,1,.76,2.42v3.9q0,1.22,0,2.43,2.76-3.61,5.52-7.15l.5-.65c.19-.24.47-.57.8-1,1-1.16,4-4.68,3.56-5.84-.09-.21-.49-.38-1.09-.44a32.89,32.89,0,0,0-4-.15,25.18,25.18,0,0,1-6.29-.54,2.62,2.62,0,0,1-1.09-.51c-1.66-1.41-2-3.6-2-5.34a13,13,0,0,1,.09-1.81c0-.25.05-.51.07-.78-.49.56-1.09,1.26-1.85,2.12-.52.6-.93,1.06-1,1.2-2.14,2.73-4.21,5.56-6.17,8.4-.67,1-.95,1.76-.76,2.15.1.23.62.79,3.06,1a35.14,35.14,0,0,0,4.81,0l2.06-.08Z"/><path class="cls-1" d="M136.62,133.18l-.37-2a5,5,0,0,0,1.26-.44,8.31,8.31,0,0,1-2.74-2,17.76,17.76,0,0,1-4.36-13.52V115c.23-3.19.37-4.29,1.5-4.32h.4a21.78,21.78,0,0,1,4.33.2,26,26,0,0,1,2.81-9.06A11.52,11.52,0,0,1,141.52,99c1.73-1.69,1.86-1.67,2.3-1.61l.55.07.23.5a15.28,15.28,0,0,1,.59,1.58,7.82,7.82,0,0,0,.89,2.08,39.58,39.58,0,0,0,5,5.89c4.22,4.18,5.83,8.64,4.78,13.25a15,15,0,0,1-5.13,7.66l.39.07.83.16-.38,2-.83-.16c-.71-.14-1.43-.27-2.16-.43l-.22.14a12.11,12.11,0,0,1-8.42,1.41A7.48,7.48,0,0,1,136.62,133.18Zm5.07-3.41a10.44,10.44,0,0,0,4-.53A16.59,16.59,0,0,1,143,128.1C142.54,128.71,142.1,129.27,141.69,129.77Zm-9-17.08c-.06.41-.15,1.15-.24,2.48l0,.25a15.58,15.58,0,0,0,3.86,12,6.77,6.77,0,0,0,3.12,1.92,10.83,10.83,0,0,0,.76-.85c.37-.46.77-1,1.16-1.51a10.07,10.07,0,0,1-1.38-1.32,14.9,14.9,0,0,1-3.63-11.17c0-.56.08-1.1.13-1.62A17.2,17.2,0,0,0,132.66,112.69ZM144,126.41a17.67,17.67,0,0,0,4.14,1.46c2.46-1.76,5-4.5,5.74-7.57.89-3.9-.54-7.73-4.24-11.39a42.37,42.37,0,0,1-5.25-6.17,9.72,9.72,0,0,1-1.15-2.6v-.06l-.36.33a10.35,10.35,0,0,0-1.7,2.38,24.5,24.5,0,0,0-2.62,8.65,15.13,15.13,0,0,1,3.65,2.09,6.27,6.27,0,0,1,2.14,3.3c.84,2.33,1.52,4.63.72,7.18A13,13,0,0,1,144,126.41Zm-5.67-12.9-.09,1.13a13.06,13.06,0,0,0,3.15,9.73,8.23,8.23,0,0,0,.95.92,11.59,11.59,0,0,0,.81-1.88c.62-2,.05-3.84-.69-5.91a4.36,4.36,0,0,0-1.46-2.37A14.54,14.54,0,0,0,138.37,113.51Z"/><path class="cls-1" d="M155.33,351.35l-.29-2c10.06-1.43,17-4.6,20.52-9.43a14.32,14.32,0,0,0,2.72-7.65h0c-.67,0-1.35,0-2.05-.08l-1.29-.09.51-1.52c.75-2.28.9-2.48,2.63-3.6l1.73-1.13.24,1.52a25.52,25.52,0,0,1,.29,2.81,12.72,12.72,0,0,0,8.17-3.5c5.26-5.22,5.2-15.78,4.71-23.27l2-.13c.57,8.54.48,19.08-5.29,24.82a14.9,14.9,0,0,1-9.6,4.08,16.23,16.23,0,0,1-3.12,8.93C173.28,346.4,165.93,349.84,155.33,351.35Zm22.31-21.07h.67c0-.32,0-.65-.06-1A2.08,2.08,0,0,0,177.64,330.28Z"/><path class="cls-1" d="M267.33,342.88c-2.18-3.64-2.8-7.66-3.4-11.55-.15-1-.31-2-.49-3h-2.15c-4.06,0-8.26,0-12.37.18l-1.19.06.15-1.19a28.75,28.75,0,0,1,2.21-6.95,33.77,33.77,0,0,0,2.11-6.27l2,.37a35.22,35.22,0,0,1-2.23,6.66,35.56,35.56,0,0,0-1.86,5.27c3.75-.15,7.54-.14,11.22-.13h3.79l.16.8c.26,1.29.46,2.61.66,3.88.59,3.87,1.16,7.52,3.13,10.82Z"/></g></g></svg>